<svg width="316" height="60" viewBox="0 0 316 60" fill="none" xmlns="http://www.w3.org/2000/svg">
<g clip-path="url(#clip0_15_146)">
<path d="M316 48.2398C309.93 51.0244 302.479 54.6233 295.747 50.7505C290.504 47.0947 295.305 41.6359 294.974 37.1053H294.532C290.889 42.18 287.08 47.2014 281.949 51.0244C281.122 51.0244 280.237 50.6439 279.852 49.8259C278.418 47.0947 281.672 46.4404 282.887 44.8614C287.027 40.7682 290.008 35.8002 294.035 32.0377C295.085 31.7105 296.517 31.9808 297.459 32.692C300.99 37.0022 296.905 42.1338 298.009 46.9347C299.663 50.1531 303.471 49.1716 306.341 48.7875C307.884 48.407 309.43 48.0229 310.976 47.5891C312.577 47.6388 316.054 45.0748 316 48.2398Z" fill="white"/>
<path d="M268.043 55.7177C260.923 58.7724 250.66 58.1181 244.09 54.2987C243.263 54.409 242.932 53.4239 242.216 53.2603C234.765 49.1137 231.507 40.3796 232.172 32.0332C233.057 26.6846 234.765 21.6632 238.131 17.3531C237.246 16.7521 236.034 15.9875 235.869 14.7321C236.423 10.0379 240.562 6.54569 244.367 3.70782C250.329 -0.822814 260.7 -1.09664 267.378 2.39557C277.864 7.03645 285.038 17.8403 284.488 29.4122C284.157 40.3263 278.914 51.4573 268.043 55.7177ZM278.529 21.3894C276.598 13.9675 269.643 7.08979 262.084 5.1801C258.713 4.13573 255.097 4.15235 251.736 5.22765C248.375 6.30296 245.434 8.38389 243.32 11.183C245.913 8.88924 248.786 6.76262 252.425 6.59903C253.475 6.59903 254.356 7.31028 254.964 8.18155C255.46 9.10973 254.741 9.92766 254.026 10.5287C249.775 11.5102 245.967 14.2947 243.155 17.8936C238.462 24.3339 234.93 33.3383 238.023 41.3078C239.016 44.0888 241.004 46.219 243.432 48.2389C250.052 53.2603 261.311 54.4623 268.597 50.0953C277.921 43.6549 281.122 32.2501 278.529 21.3894ZM225.164 25.5893C224.502 26.2436 223.729 26.0801 223.01 25.7529C222.29 25.0985 221.298 24.0601 221.683 22.9684C223.117 19.4192 223.34 14.8922 223.283 11.4533C223.837 10.9092 224.829 10.7954 225.545 11.0728C229.188 13.5266 226.926 18.3844 226.757 21.9335C226.433 23.2422 225.879 24.4442 225.164 25.5893ZM219.698 54.6792C215.008 55.2233 210.481 53.367 207.392 49.4409H207.115C204.357 53.207 199.499 56.2084 194.313 55.0633C192.99 54.4623 191.774 53.5341 191.113 52.1721C189.955 48.6799 191.224 44.8036 193.651 42.1293C195.805 39.8355 198.675 38.854 201.71 38.9643C202.206 38.5268 201.545 37.9258 201.599 37.3817C201.214 33.9962 201.599 30.5609 202.264 27.4492C203.476 24.1775 204.414 20.5715 207.395 18.2812C209.269 16.7521 212.085 17.1895 214.016 18.2812C220.309 26.4143 214.512 36.7843 210.869 44.4764C210.427 44.9672 210.042 45.6251 210.208 46.1692C212.639 49.5512 216.224 51.3542 219.974 52.3357C221.132 52.7695 220.748 54.4054 219.698 54.6792ZM211.916 27.5559C212.027 25.5893 212.358 23.1355 211.089 21.6597C209.708 21.1689 209.708 22.8048 208.992 23.3524C206.453 28.2636 205.572 34.4301 207.115 39.8889C209.546 36.1228 210.869 31.866 211.916 27.5559ZM203.972 45.5113C204.137 44.2559 203.145 43.1642 202.48 42.1258C200.218 43.1073 197.625 43.9252 196.133 46.2759C195.69 47.5846 194.64 49.6578 196.021 50.7496C197.787 51.187 199.276 50.0953 200.656 49.1671L203.972 45.5113ZM176.93 58.2284C168.267 55.3371 158.277 56.7525 150.441 51.9516C148.895 52.7162 147.295 53.4274 145.806 54.409C144.867 54.4623 144.04 53.9182 143.544 53.0967C143.486 52.606 143.213 52.1152 143.321 51.5142C144.313 49.1671 149.445 49.1671 147.514 45.5113C147.679 41.7452 151.376 38.7438 154.688 37.652C156.123 37.3782 157.835 36.9408 159.046 38.0325C160.593 39.3981 161.089 41.3078 160.647 43.2744C160.204 45.8954 157.281 47.5312 155.35 49.0604C162.082 52.6095 170.414 51.1337 177.476 53.9182C178.142 54.1351 178.249 54.8464 178.526 55.3371C178.307 56.4253 178.088 57.734 176.93 58.2284ZM156.126 42.1258C154.634 41.5247 153.588 42.6165 152.595 43.5447C152.318 44.3093 151.326 45.0739 151.93 45.8918L154.138 44.3093C154.965 43.8719 156.069 43.1108 156.126 42.1258ZM139.07 54.6792C137.028 55.8777 134.05 56.372 132.062 54.7895C131.454 54.1885 130.958 53.5875 130.958 52.7162C131.896 51.6244 133.054 50.3157 134.27 50.0988C134.6 50.4793 134.712 50.9736 135.208 51.1372C135.924 51.1372 136.697 51.2475 137.193 50.7567C137.747 50.0455 137.747 49.6116 137.747 48.6834C137.193 47.5917 135.924 47.5348 134.931 47.2076C128.419 48.0255 123.949 56.3756 116.667 53.1003C115.948 52.7731 115.505 51.7347 114.678 51.6813C112.747 53.5377 109.878 54.9566 107.008 54.4125C105.735 54.0853 104.634 53.431 103.584 52.6131C99.28 55.8848 93.4867 57.9616 88.1897 55.3407C85.5934 54.1387 84.6009 51.3577 84.493 48.6834C84.27 44.1528 86.2586 39.7893 90.4516 37.933C91.5556 37.2786 92.825 37.933 93.7636 38.4237C94.8137 39.4052 95.1984 40.7175 94.8137 42.1329C94.6508 42.6884 94.2737 43.1584 93.7636 43.4416C92.7136 42.8441 91.3902 42.7339 90.4516 43.5518C88.9053 44.9174 88.5781 46.884 89.0168 48.7901C89.2362 49.8285 89.9014 50.9736 91.0018 51.4111C95.1409 53.1038 99.3339 50.9203 102.373 48.0255C102.427 44.4231 103.807 40.5503 107.393 38.8576C108.774 39.1847 108.885 40.8242 109.104 41.9693C109.212 44.5867 107.724 46.5533 107.116 48.9004C107.831 49.9388 108.935 49.7183 110.039 49.5547C112.024 48.7368 114.344 47.3178 114.675 44.9707C115.502 43.5518 115.448 41.6421 117.214 40.6606C117.987 40.497 119.145 40.3334 119.587 41.3185C120.414 43.1713 119.421 45.3015 118.814 47.1009C118.979 48.0291 118.371 48.847 119.31 49.3378C121.13 49.665 122.511 48.2994 124.111 47.7553C128.638 45.081 133.604 41.4252 139.175 43.2815C141.383 44.1564 141.936 46.4466 142.379 48.4096C142.271 50.9132 141.332 53.2603 139.07 54.6792ZM76.8226 54.7895C72.8489 56.372 67.4944 57.574 63.6862 55.0633C61.5321 53.5875 61.2588 50.9701 61.8666 48.6799C62.0895 48.0789 62.4743 47.5881 62.5283 46.9338C62.1435 46.6599 61.5357 46.9871 61.2013 46.7133C60.8705 42.6201 63.2978 38.5802 66.9982 36.891C71.522 35.0346 76.6572 36.5638 80.131 39.6186C81.7851 42.0191 83.4393 44.64 82.7813 47.8584C82.285 51.0234 79.3578 53.3136 76.8226 54.7895ZM78.4192 46.5461C77.7576 43.7616 75.1648 41.7417 72.4606 41.1976C73.0108 41.8519 73.4531 42.5596 73.5106 43.4344C73.4357 43.9182 73.2533 44.3796 72.9766 44.7854C72.6999 45.1913 72.3358 45.5314 71.9104 45.7816C69.7024 45.4544 67.6598 47.1471 66.5019 48.8932C66.5019 49.7681 65.8366 50.7496 66.7249 51.4039C69.537 52.8798 72.8489 51.5142 75.4956 50.6394C76.765 49.7147 78.8076 48.5127 78.4192 46.5461ZM69.6485 41.2011C69.1486 40.8206 68.5984 41.3114 68.0482 41.3114C67.2751 41.8555 65.9517 42.2929 65.8402 43.2744C66.9982 42.3996 68.4869 41.8555 69.6485 41.2011ZM47.2954 57.0263C43.0448 58.8827 37.5824 61.5036 32.9471 58.8827C32.6162 58.1181 32.0085 57.3002 32.4508 56.372C32.6162 55.3905 33.7742 54.409 34.7127 54.0249C35.7053 53.9146 35.2629 55.1166 36.0361 55.4438C40.8944 56.8628 44.8105 53.6408 48.6223 51.4039C53.6999 47.5277 58.1698 42.1257 57.0658 35.3049C54.8003 28.0466 46.4683 27.5025 39.8479 26.7913C37.3091 26.7344 35.5434 27.3354 32.9471 27.2821C32.2854 26.7913 31.3468 26.738 30.9585 25.8631C30.4622 23.1888 33.3894 22.314 35.0975 21.2791C38.6289 19.5864 43.0448 16.4782 42.8794 12.0009C42.9165 11.4248 42.8161 10.8481 42.5862 10.3174C42.3563 9.78677 42.0034 9.31702 41.556 8.94614C37.8593 5.61752 31.7352 7.08979 27.1502 7.52365C19.1526 9.10973 11.3132 11.4568 5.0201 16.8054C3.75069 18.0572 5.40847 22.755 1.71172 21.2791C0.276897 20.8986 0.276896 19.2023 0 18.0074C0.165419 13.6404 4.41596 10.9661 7.78187 8.94614C15.3983 4.36217 24.3381 2.83299 33.6088 2.17864C37.9132 2.1253 43.3217 2.61606 45.972 6.87286C48.18 10.5287 47.5183 15.3296 45.0334 18.6582C44.3142 20.0771 42.6061 21.2258 41.7215 22.4776C42.8255 22.8048 44.3682 22.8048 45.6951 22.9684C51.3229 23.6227 57.2313 25.7529 60.0973 30.9912C63.0784 37.0475 60.8129 44.9067 56.4006 49.9815C53.477 52.606 50.6073 55.3869 47.2954 57.0263Z" fill="white"/>
<path d="M22.1301 25.0995C20.0336 35.1957 18.4873 45.402 18.8182 56.0992C18.3759 57.1909 17.1065 57.3545 16.1715 57.0274C13.7441 56.7002 14.5173 54.1361 14.1829 52.4434C14.4058 40.4376 15.8406 28.4317 19.0411 17.6244C19.318 17.0233 19.7028 16.5859 20.1451 16.0418C21.1376 15.6044 22.1877 16.1485 22.7954 16.97C24.446 19.5874 22.5149 22.4786 22.1301 25.0995Z" fill="white"/>
</g>
<defs>
<clipPath id="clip0_15_146">
<rect width="316" height="60" fill="white"/>
</clipPath>
</defs>
</svg>
