<svg width="211" height="138" viewBox="0 0 211 138" fill="none" xmlns="http://www.w3.org/2000/svg">
<path d="M193.808 31.8462C199.737 32.7561 202.701 36.3681 202.701 39.8698C202.701 42.2135 201.207 43.8954 198.904 43.8954C196.968 43.8954 195.327 42.2135 195.327 39.8698C195.327 37.3607 196.895 36.3129 196.895 35.0998C196.895 34.1347 196.184 32.4252 193.808 31.8462ZM190.402 31.9014C185.11 32.8112 182.904 38.3809 182.904 45.0258C182.904 50.6231 182.904 55.1174 187.094 56.6614C180.381 55.0622 175.726 51.2572 175.726 44.9707C175.726 36.2854 181.998 32.3425 190.402 31.9014ZM190.402 87.901C180.356 87.0187 173.765 82.1935 173.765 71.909C173.765 63.7476 178.715 59.8323 186.751 58.0125C182.341 59.915 180.944 64.7953 180.944 71.909C180.944 79.4363 183.517 86.2467 190.402 87.901ZM200.815 58.7018C193.857 61.2936 187.609 63.0582 187.609 66.8632C187.609 66.8632 187.192 66.3394 187.119 65.4019C186.457 58.9775 192.656 56.689 199.467 54.1799C206.989 51.4227 210.517 49.9062 210.517 46.432C210.517 46.432 210.885 47.0662 210.958 47.8107C211.497 53.4906 206.72 56.5236 201.133 58.6191M194.665 87.901C199.957 86.9911 202.162 81.4215 202.162 74.7765C202.162 69.1793 202.162 64.685 197.973 63.141C204.686 64.7402 209.341 68.5452 209.341 74.8593C209.317 83.517 203.045 87.4599 194.665 87.901ZM47.8289 60.8524C44.2517 62.3414 37.2688 64.4093 29.7715 64.4093C20.2895 64.4093 13.1351 61.7072 7.8183 55.9721C2.82004 50.6231 -0.0956107 42.2962 0.00239439 32.7561C0.00239439 12.8212 12.6451 0 31.1925 0C38.1019 0 43.4922 1.5992 46.0893 3.0054L43.8352 12.2697C40.748 10.7808 37.0238 9.56765 31.119 9.56765C19.1379 9.56765 10.734 17.5085 10.734 32.2322C10.734 46.5423 18.5499 55.0622 30.188 55.0622C33.8387 55.0622 36.5828 54.5108 37.9304 53.7387V38.0224H28.0319V28.9511H47.8289V60.8524ZM75.0253 41.469C67.7974 41.276 60.8881 43.0682 60.8881 49.9889C60.8881 54.4832 63.4607 56.5511 66.7194 56.5511C70.7866 56.5511 73.7757 53.5457 74.7068 50.2646C74.9273 49.4374 75.0498 48.5827 75.0498 47.7279V41.469H75.0253ZM76.3484 63.7476L75.6868 58.7018H75.4418C72.9427 62.2586 68.704 64.7953 63.4607 64.7953C55.3018 64.7953 50.7445 58.1503 50.7445 51.2297C50.7445 39.7044 59.81 33.9141 74.7803 33.9969V33.2524C74.7803 30.247 73.7022 25.284 66.5479 25.284C62.5542 25.284 58.3889 26.6902 55.6448 28.6478L53.6357 21.1481C56.6249 19.0802 61.8681 17.1225 68.2875 17.1225C81.2731 17.1225 84.9973 26.3869 84.9973 36.3129V52.7737C84.9973 56.882 85.1688 60.9076 85.5854 63.72C85.5854 63.7476 76.3484 63.7476 76.3484 63.7476ZM127.091 50.0716C127.091 55.5034 127.262 59.9977 127.434 63.7476H118.442L117.952 56.8269H117.78C116.04 60.108 112.047 64.7953 104.794 64.7953C97.395 64.7953 90.6571 59.8323 90.6571 44.9431V18.1703H100.899V42.9855C100.899 50.5679 103.055 55.4482 108.47 55.4482C112.537 55.4482 115.207 52.1671 116.285 49.272C116.628 48.2518 116.873 47.0111 116.873 45.7152V18.1978H127.115V50.0716H127.091ZM133.167 63.7476H143.482V0H133.167V63.7476ZM162.936 5.15605V18.1703H172.663V26.7729H162.936V46.9008C162.936 52.4153 164.259 55.3104 168.179 55.3104C169.527 55.3104 170.874 55.1449 172.173 54.7589L172.344 63.5545C170.85 64.2163 168.179 64.685 164.945 64.685C161.196 64.685 158.036 63.2788 156.125 60.9352C153.968 58.3158 152.964 54.2075 152.964 48.1967V26.7729H147.133V18.1703H152.964V7.88573L162.936 5.15605ZM51.3816 111.089C51.0386 102.956 50.6465 93.1122 50.72 84.5923H50.475C48.5149 92.7262 46.3098 100.777 43.8107 108.746L35.6518 136.07H27.7623L20.2895 109.104C18.1088 101.026 16.2222 92.8365 14.6297 84.5923H14.4581C14.2131 93.5534 13.8701 102.514 13.4536 111.448L12.204 136.815H2.62403L6.37273 73.7288H19.8484L27.1743 99.0955C29.1344 106.319 30.8495 113.626 32.3196 120.988H32.5646C34.2062 113.626 36.0683 106.264 38.1754 99.0127L45.9178 73.7288H59.222L62.4562 136.815H52.4841L51.3816 111.089ZM71.5216 136.842H81.8367V91.2649H71.5216V136.842ZM82.4002 78.5264C82.4002 81.973 80.1461 84.7026 76.5689 84.7026C73.1632 84.7026 70.9091 82.0005 70.9091 78.5264C70.9091 74.9696 73.2367 72.2399 76.6424 72.2399C80.1706 72.2399 82.3267 74.9696 82.4002 78.5264ZM91.1472 136.842H101.462V73.7564H91.1472V136.842ZM110.846 136.842H121.161V73.7564H110.846V136.842ZM152.033 114.564C144.805 114.371 137.896 116.163 137.896 123.084C137.896 127.578 140.468 129.646 143.727 129.646C147.794 129.646 150.783 126.64 151.714 123.359C151.935 122.532 152.057 121.677 152.057 120.823C152.033 120.823 152.033 114.564 152.033 114.564ZM153.356 136.842L152.694 131.796H152.449C149.95 135.353 145.712 137.89 140.468 137.89C132.309 137.89 127.752 131.245 127.752 124.324C127.752 112.799 136.818 107.009 151.788 107.091V106.347C151.788 103.342 150.71 98.3786 143.555 98.3786C139.562 98.3786 135.396 99.7848 132.652 101.742L130.643 94.2427C133.632 92.1748 138.876 90.2171 145.295 90.2171C158.281 90.2171 162.005 99.4815 162.005 109.408V125.868C162.005 129.977 162.176 134.002 162.593 136.815C162.593 136.842 153.356 136.842 153.356 136.842ZM207.43 123.166C207.43 128.598 207.602 133.092 207.773 136.842H198.806L198.316 129.921H198.144C196.405 133.203 192.411 137.89 185.159 137.89C177.759 137.89 171.021 132.927 171.021 118.038V91.2649H181.263V116.08C181.263 123.663 183.419 128.543 188.834 128.543C192.901 128.543 195.572 125.262 196.65 122.367C196.993 121.346 197.238 120.106 197.238 118.81V91.2924H207.479L207.43 123.166Z" fill="white"/>
</svg>
