<svg width="270" height="119" viewBox="0 0 270 119" fill="none" xmlns="http://www.w3.org/2000/svg">
<g clip-path="url(#clip0_15_103)">
<path opacity="0.972" fill-rule="evenodd" clip-rule="evenodd" d="M137.229 -0.0571289C137.838 -0.0571289 138.449 -0.0571289 139.058 -0.0571289C140.595 0.476452 141.376 1.58148 141.401 3.25795C143.135 2.08629 144.659 2.31491 145.974 3.94383C146.855 6.06381 146.302 7.68324 144.316 8.80214C142.071 9.87425 139.747 10.7316 137.343 11.3742C137.104 11.3758 136.894 11.2996 136.715 11.1456C135.934 8.4999 135.344 5.81354 134.943 3.08648C135.071 1.56851 135.833 0.520633 137.229 -0.0571289Z" fill="white"/>
<path opacity="0.972" fill-rule="evenodd" clip-rule="evenodd" d="M172.354 0C172.964 0 173.574 0 174.183 0C175.721 0.533581 176.501 1.63861 176.527 3.31508C178.261 2.14342 179.784 2.37204 181.099 4.00096C181.98 6.12094 181.427 7.74037 179.441 8.85927C177.196 9.93138 174.872 10.7887 172.469 11.4313C172.23 11.4329 172.019 11.3567 171.84 11.2027C171.059 8.55703 170.469 5.87067 170.068 3.14361C170.196 1.62564 170.959 0.577762 172.354 0Z" fill="white"/>
<path opacity="0.972" fill-rule="evenodd" clip-rule="evenodd" d="M101.003 0C101.612 0 102.223 0 102.832 0C104.369 0.533581 105.15 1.63861 105.175 3.31508C106.909 2.14342 108.433 2.37204 109.748 4.00096C110.629 6.12094 110.076 7.74037 108.09 8.85927C105.845 9.93138 103.521 10.7887 101.117 11.4313C100.878 11.4329 100.668 11.3567 100.489 11.2027C99.7078 8.55703 99.1179 5.87067 98.7167 3.14361C98.8447 1.62564 99.6072 0.577762 101.003 0Z" fill="white"/>
<path opacity="0.923" fill-rule="evenodd" clip-rule="evenodd" d="M132.542 0.514502C132.765 0.483263 132.937 0.559472 133.057 0.743129C133.118 1.24319 133.156 1.73854 133.171 2.2292C131.532 2.87525 130.712 4.09458 130.713 5.88722C130.9 7.98968 131.491 9.97112 132.485 11.8315C132.563 11.9783 132.545 12.1117 132.428 12.2316C132.158 12.3868 131.892 12.5012 131.628 12.5745C130.495 10.7556 129.047 9.23142 127.284 8.00201C124.552 6.59573 122.666 7.33877 121.626 10.2311C121.388 11.7946 121.941 12.9949 123.283 13.832C125.4 14.9041 127.648 15.4566 130.028 15.4895C130.028 15.8325 130.028 16.1754 130.028 16.5183C128.401 16.6493 126.801 16.9351 125.227 17.3757C123.813 17.7642 122.689 18.5453 121.854 19.7191C121.173 22.0704 121.954 23.728 124.198 24.6917C125.766 24.8293 127.138 24.372 128.313 23.32C129.589 22.1981 130.693 20.9407 131.628 19.5476C132.009 19.5667 132.313 19.7382 132.542 20.0621C131.54 22.003 130.931 24.0606 130.713 26.235C130.997 29.1783 132.597 30.3786 135.514 29.8358C136.701 29.4874 137.406 28.7063 137.629 27.4924C137.868 25.8094 137.677 24.1709 137.058 22.5769C136.727 21.7253 136.365 20.887 135.972 20.0621C136.201 19.7382 136.505 19.5667 136.886 19.5476C138.144 21.4147 139.706 22.977 141.573 24.2345C144.176 25.3429 145.947 24.5618 146.888 21.8911C147.172 20.2281 146.581 18.9898 145.116 18.1759C143.052 17.212 140.88 16.6595 138.601 16.5183C138.601 16.1754 138.601 15.8325 138.601 15.4895C141.09 15.4455 143.414 14.8168 145.574 13.6034C146.904 12.5448 147.285 11.2111 146.717 9.6024C147.197 9.21011 147.73 8.94338 148.317 8.80221C149.205 11.0006 148.825 12.944 147.174 14.6322C146.47 15.1944 145.707 15.6706 144.888 16.0611C146.295 16.6792 147.42 17.6318 148.26 18.9189C149.276 21.5345 148.724 23.7636 146.602 25.6062C144.774 26.7711 142.868 26.8854 140.887 25.9492C140.417 25.6693 139.978 25.3455 139.572 24.9775C139.881 27.0416 139.367 28.8515 138.029 30.4074C136.389 31.7142 134.56 32.0952 132.542 31.5505C131.009 31.0467 129.962 30.0369 129.399 28.5212C129.149 27.3909 128.977 26.2478 128.884 25.0918C127.325 26.3198 125.573 26.7581 123.626 26.4064C121.175 25.4965 119.88 23.7246 119.74 21.0909C119.771 19.6003 120.342 18.362 121.454 17.3757C122.14 16.88 122.864 16.4419 123.626 16.0611C122.392 15.4548 121.343 14.6164 120.483 13.5462C119.169 10.7787 119.684 8.39722 122.026 6.40163C124.463 5.09415 126.767 5.30372 128.942 7.03035C128.891 5.55603 129.158 4.14617 129.742 2.80077C130.456 1.76199 131.389 0.999902 132.542 0.514502Z" fill="white"/>
<path opacity="0.923" fill-rule="evenodd" clip-rule="evenodd" d="M167.668 0.571509C167.89 0.54027 168.062 0.616479 168.182 0.800135C168.244 1.3002 168.281 1.79555 168.296 2.28621C166.657 2.93226 165.837 4.15159 165.839 5.94423C166.025 8.04669 166.616 10.0281 167.61 11.8885C167.688 12.0353 167.67 12.1687 167.553 12.2886C167.283 12.4438 167.017 12.5582 166.753 12.6315C165.62 10.8126 164.172 9.28842 162.409 8.05902C159.677 6.65274 157.791 7.39578 156.751 10.2881C156.513 11.8516 157.066 13.0519 158.408 13.889C160.525 14.9611 162.773 15.5136 165.153 15.5465C165.153 15.8895 165.153 16.2324 165.153 16.5753C163.526 16.7064 161.926 16.9921 160.352 17.4327C158.938 17.8212 157.814 18.6024 156.98 19.7761C156.298 22.1274 157.079 23.785 159.323 24.7487C160.891 24.8863 162.263 24.429 163.438 23.377C164.714 22.2551 165.818 20.9977 166.753 19.6046C167.134 19.6237 167.438 19.7952 167.668 20.1191C166.665 22.06 166.056 24.1176 165.839 26.292C166.122 29.2353 167.722 30.4356 170.64 29.8928C171.826 29.5444 172.531 28.7633 172.754 27.5494C172.993 25.8664 172.802 24.2279 172.183 22.6339C171.852 21.7823 171.49 20.9441 171.097 20.1191C171.327 19.7952 171.631 19.6237 172.011 19.6046C173.269 21.4717 174.831 23.034 176.698 24.2915C179.301 25.3999 181.073 24.6188 182.013 21.9481C182.297 20.2852 181.706 19.0468 180.242 18.2329C178.177 17.269 176.005 16.7165 173.726 16.5753C173.726 16.2324 173.726 15.8895 173.726 15.5465C176.216 15.5025 178.54 14.8738 180.699 13.6604C182.029 12.6018 182.41 11.2681 181.842 9.65941C182.322 9.26712 182.855 9.00039 183.442 8.85921C184.331 11.0576 183.95 13.001 182.299 14.6892C181.595 15.2514 180.833 15.7276 180.013 16.1181C181.42 16.7362 182.545 17.6888 183.385 18.9759C184.401 21.5915 183.849 23.8206 181.728 25.6632C179.899 26.8281 177.993 26.9424 176.012 26.0062C175.542 25.7263 175.103 25.4025 174.698 25.0345C175.006 27.0986 174.492 28.9085 173.154 30.4644C171.514 31.7712 169.685 32.1522 167.668 31.6075C166.135 31.1038 165.088 30.0939 164.524 28.5782C164.274 27.4479 164.102 26.3048 164.01 25.1488C162.45 26.3768 160.698 26.8151 158.751 26.4634C156.301 25.5535 155.005 23.7817 154.865 21.1479C154.896 19.6573 155.467 18.419 156.58 17.4327C157.265 16.937 157.989 16.4989 158.751 16.1181C157.517 15.5118 156.469 14.6734 155.608 13.6032C154.294 10.8357 154.809 8.45422 157.151 6.45864C159.588 5.15116 161.893 5.36073 164.067 7.08736C164.017 5.61304 164.283 4.20318 164.867 2.85777C165.581 1.819 166.514 1.05691 167.668 0.571509Z" fill="white"/>
<path opacity="0.923" fill-rule="evenodd" clip-rule="evenodd" d="M97.127 0.816382C97.35 0.785143 97.5214 0.861352 97.6414 1.04501C97.7032 1.54507 97.7409 2.04042 97.7558 2.53108C96.1166 3.17713 95.2969 4.39646 95.2981 6.1891C95.4844 8.29156 96.0754 10.273 97.0699 12.1334C97.1476 12.2802 97.1293 12.4136 97.0127 12.5335C96.743 12.6887 96.4766 12.803 96.2126 12.8764C95.0798 11.0575 93.6315 9.5333 91.8688 8.30389C89.1368 6.89761 87.2507 7.64065 86.2105 10.533C85.9727 12.0965 86.5259 13.2968 87.8679 14.1339C89.985 15.206 92.2323 15.7585 94.6122 15.7914C94.6122 16.1343 94.6122 16.4773 94.6122 16.8202C92.9856 16.9512 91.3853 17.237 89.8112 17.6776C88.3972 18.0661 87.2735 18.8472 86.4391 20.021C85.7578 22.3723 86.5385 24.0298 88.7824 24.9936C90.3508 25.1311 91.7225 24.6739 92.8976 23.6219C94.1733 22.5 95.2775 21.2425 96.2126 19.8495C96.5932 19.8686 96.8973 20.0401 97.127 20.3639C96.1246 22.3049 95.5153 24.3625 95.2981 26.5368C95.5816 29.4802 97.1819 30.6805 100.099 30.1377C101.286 29.7893 101.991 29.0082 102.214 27.7943C102.453 26.1113 102.262 24.4728 101.642 22.8788C101.312 22.0272 100.95 21.1889 100.556 20.3639C100.786 20.0401 101.09 19.8686 101.471 19.8495C102.728 21.7166 104.291 23.2789 106.158 24.5364C108.76 25.6447 110.532 24.8636 111.473 22.1929C111.756 20.53 111.165 19.2917 109.701 18.4778C107.637 17.5139 105.465 16.9614 103.185 16.8202C103.185 16.4773 103.185 16.1343 103.185 15.7914C105.675 15.7474 107.999 15.1187 110.158 13.9052C111.489 12.8467 111.87 11.513 111.301 9.90428C111.782 9.51199 112.314 9.24526 112.902 9.10409C113.79 11.3025 113.409 13.2459 111.759 14.9341C111.055 15.4962 110.292 15.9725 109.473 16.363C110.88 16.9811 112.004 17.9336 112.845 19.2208C113.861 21.8364 113.309 24.0655 111.187 25.9081C109.358 27.073 107.453 27.1873 105.472 26.2511C105.002 25.9712 104.563 25.6474 104.157 25.2794C104.466 27.3434 103.951 29.1534 102.614 30.7093C100.974 32.0161 99.1446 32.3971 97.127 31.8524C95.5942 31.3486 94.5471 30.3388 93.9835 28.8231C93.7332 27.6928 93.5617 26.5496 93.4691 25.3937C91.9099 26.6217 90.1576 27.0599 88.2109 26.7083C85.7601 25.7984 84.4649 24.0265 84.3243 21.3927C84.3552 19.9022 84.9268 18.6639 86.039 17.6776C86.7248 17.1819 87.4484 16.7437 88.2109 16.363C86.9763 15.7567 85.9281 14.9183 85.0674 13.8481C83.7539 11.0806 84.2683 8.6991 86.6105 6.70351C89.0476 5.39603 91.3521 5.6056 93.5263 7.33223C93.476 5.85791 93.7423 4.44805 94.3265 3.10265C95.0409 2.06387 95.9737 1.30178 97.127 0.816382Z" fill="white"/>
<path opacity="0.959" fill-rule="evenodd" clip-rule="evenodd" d="M121.111 50.5836C124.202 50.3756 126.908 51.271 129.227 53.27C128.524 54.1634 127.781 55.0208 126.998 55.842C124.961 54.0609 122.618 53.4703 119.968 54.0702C117.143 55.277 115.656 57.4298 115.51 60.5289C115.866 65.1253 118.343 67.3544 122.94 67.2162C124.208 67.0477 125.371 66.6095 126.427 65.9016C126.484 64.721 126.503 63.5398 126.484 62.3579C124.884 62.3579 123.283 62.3579 121.683 62.3579C121.683 61.3671 121.683 60.3765 121.683 59.3857C124.426 59.3857 127.17 59.3857 129.913 59.3857C129.933 62.0914 129.913 64.7969 129.856 67.502C125.695 70.7702 121.219 71.2846 116.425 69.0452C112.996 66.6535 111.529 63.3575 112.024 59.1571C112.973 54.0727 116.003 51.2149 121.111 50.5836Z" fill="white"/>
<path opacity="0.962" fill-rule="evenodd" clip-rule="evenodd" d="M69.5576 50.9265C70.7007 50.9265 71.8438 50.9265 72.9869 50.9265C72.9869 56.2612 72.9869 61.5957 72.9869 66.9304C76.3399 66.9304 79.6931 66.9304 83.0462 66.9304C83.0462 67.9972 83.0462 69.0642 83.0462 70.1311C78.55 70.1311 74.0537 70.1311 69.5576 70.1311C69.5576 63.7296 69.5576 57.3281 69.5576 50.9265Z" fill="white"/>
<path opacity="0.96" fill-rule="evenodd" clip-rule="evenodd" d="M86.3611 50.9265C91.1241 50.9265 95.8869 50.9265 100.65 50.9265C100.65 51.9553 100.65 52.9842 100.65 54.013C97.0682 54.013 93.4864 54.013 89.9048 54.013C89.9048 55.6514 89.9048 57.29 89.9048 58.9284C93.0674 58.9284 96.2299 58.9284 99.3925 58.9284C99.3925 59.9573 99.3925 60.9861 99.3925 62.0149C96.2299 62.0149 93.0674 62.0149 89.9048 62.0149C89.9048 63.6915 89.9048 65.368 89.9048 67.0447C93.5246 67.0447 97.1443 67.0447 100.764 67.0447C100.764 68.0735 100.764 69.1023 100.764 70.1311C95.9632 70.1311 91.1622 70.1311 86.3611 70.1311C86.3611 63.7296 86.3611 57.3281 86.3611 50.9265Z" fill="white"/>
<path opacity="0.958" fill-rule="evenodd" clip-rule="evenodd" d="M133.8 50.9265C134.943 50.9265 136.086 50.9265 137.229 50.9265C137.21 54.6991 137.229 58.4714 137.286 62.2435C137.644 66.1834 139.759 67.7647 143.63 66.9875C145.152 66.457 146.123 65.4091 146.545 63.8439C146.713 59.5426 146.77 55.2369 146.717 50.9265C147.898 50.9265 149.08 50.9265 150.26 50.9265C150.28 54.7752 150.26 58.6238 150.203 62.4721C149.881 67.6344 147.137 70.2636 141.973 70.3598C137.116 70.3802 134.411 67.9796 133.857 63.158C133.8 59.081 133.78 55.0038 133.8 50.9265Z" fill="white"/>
<path opacity="0.969" fill-rule="evenodd" clip-rule="evenodd" d="M154.947 50.9265C156.09 50.9265 157.233 50.9265 158.376 50.9265C158.376 57.3281 158.376 63.7296 158.376 70.1311C157.233 70.1311 156.09 70.1311 154.947 70.1311C154.947 63.7296 154.947 57.3281 154.947 50.9265Z" fill="white"/>
<path opacity="0.955" fill-rule="evenodd" clip-rule="evenodd" d="M163.292 50.9265C166.343 50.8791 169.391 50.9363 172.436 51.098C177.591 52.1097 180.334 55.2342 180.667 60.4717C180.547 64.7541 178.528 67.7262 174.608 69.3881C173.908 69.6656 173.183 69.856 172.436 69.9597C169.391 70.1214 166.343 70.1786 163.292 70.1312C163.292 63.7296 163.292 57.3281 163.292 50.9265ZM166.835 54.1273C168.398 54.1082 169.961 54.1273 171.522 54.1845C175.075 54.8416 176.904 56.9754 177.009 60.586C176.847 64.1395 175.018 66.2352 171.522 66.8732C169.961 66.9304 168.398 66.9495 166.835 66.9304C166.835 62.6627 166.835 58.395 166.835 54.1273Z" fill="white"/>
<path opacity="0.961" fill-rule="evenodd" clip-rule="evenodd" d="M184.553 50.9265C189.317 50.9265 194.079 50.9265 198.842 50.9265C198.842 51.9553 198.842 52.9842 198.842 54.013C195.261 54.013 191.678 54.013 188.097 54.013C188.097 55.6514 188.097 57.29 188.097 58.9284C191.26 58.9284 194.422 58.9284 197.585 58.9284C197.585 59.9573 197.585 60.9861 197.585 62.0149C194.422 62.0149 191.26 62.0149 188.097 62.0149C188.097 63.6915 188.097 65.368 188.097 67.0447C191.717 67.0447 195.336 67.0447 198.956 67.0447C198.956 68.0735 198.956 69.1023 198.956 70.1311C194.155 70.1311 189.354 70.1311 184.553 70.1311C184.553 63.7296 184.553 57.3281 184.553 50.9265Z" fill="white"/>
<path opacity="0.979" fill-rule="evenodd" clip-rule="evenodd" d="M85.6753 118.943C84.0749 118.943 82.4746 118.943 80.8743 118.943C73.3381 117.89 68.0227 113.889 64.928 106.94C63.2431 102.279 63.0525 97.5539 64.3565 92.7652C66.8513 85.4689 71.8619 80.9917 79.3882 79.3334C83.8647 78.561 88.2085 79.0182 92.4196 80.7051C94.7304 81.7974 96.788 83.2454 98.5923 85.049C97.1242 86.7645 95.6382 88.4601 94.1342 90.136C92.2372 88.2599 90.0272 86.8691 87.5042 85.9635C81.5589 84.3254 76.7387 85.9448 73.044 90.8218C70.316 95.4433 69.9731 100.244 72.0152 105.225C74.8618 110.808 79.4151 113.227 85.6753 112.484C88.258 112.031 90.5442 110.964 92.5339 109.283C93.1626 108.731 93.7913 108.178 94.42 107.626C95.8679 109.074 97.3158 110.522 98.7638 111.97C98.84 112.046 98.84 112.122 98.7638 112.198C95.267 116.128 90.9041 118.377 85.6753 118.943Z" fill="white"/>
<path opacity="0.983" fill-rule="evenodd" clip-rule="evenodd" d="M-0.0571594 79.6191C2.38264 79.5811 4.82126 79.6191 7.25867 79.7334C11.1547 85.7345 15.0221 91.7551 18.8611 97.7949C22.7668 91.7554 26.6723 85.7158 30.5779 79.6763C33.0162 79.6191 35.4548 79.6 37.8937 79.6191C37.8937 92.5365 37.8937 105.454 37.8937 118.371C35.6075 118.371 33.3213 118.371 31.0351 118.371C31.0542 109.226 31.0351 100.081 30.978 90.9361C27.1609 96.5445 23.3887 102.184 19.6613 107.854C19.3908 108.239 19.086 108.582 18.7468 108.883C14.6905 102.982 10.6897 97.0376 6.74428 91.0504C6.68713 100.157 6.66807 109.264 6.68713 118.371C4.43903 118.371 2.19094 118.371 -0.0571594 118.371C-0.0571594 105.454 -0.0571594 92.5365 -0.0571594 79.6191Z" fill="white"/>
<path opacity="0.984" fill-rule="evenodd" clip-rule="evenodd" d="M48.0673 79.6191C50.3535 79.6191 52.6397 79.6191 54.9259 79.6191C54.9259 92.5365 54.9259 105.454 54.9259 118.371C52.6397 118.371 50.3535 118.371 48.0673 118.371C48.0673 105.454 48.0673 92.5365 48.0673 79.6191Z" fill="white"/>
<path opacity="0.981" fill-rule="evenodd" clip-rule="evenodd" d="M105.794 79.6191C108.118 79.6191 110.442 79.6191 112.767 79.6191C112.767 84.9919 112.767 90.3646 112.767 95.7373C118.863 95.7373 124.96 95.7373 131.056 95.7373C131.056 90.3646 131.056 84.9919 131.056 79.6191C133.343 79.6191 135.629 79.6191 137.915 79.6191C137.915 92.5365 137.915 105.454 137.915 118.371C135.629 118.371 133.343 118.371 131.056 118.371C131.056 112.922 131.056 107.473 131.056 102.025C124.96 102.025 118.863 102.025 112.767 102.025C112.767 107.473 112.767 112.922 112.767 118.371C110.442 118.371 108.118 118.371 105.794 118.371C105.794 105.454 105.794 92.5365 105.794 79.6191Z" fill="white"/>
<path opacity="0.984" fill-rule="evenodd" clip-rule="evenodd" d="M147.746 79.6191C157.31 79.6191 166.873 79.6191 176.437 79.6191C176.437 81.6768 176.437 83.7344 176.437 85.7921C169.159 85.7921 161.882 85.7921 154.604 85.7921C154.604 89.1071 154.604 92.4222 154.604 95.7373C161.043 95.7373 167.483 95.7373 173.923 95.7373C173.923 97.7949 173.923 99.8526 173.923 101.91C167.483 101.91 161.043 101.91 154.604 101.91C154.604 105.34 154.604 108.769 154.604 112.198C161.958 112.198 169.312 112.198 176.666 112.198C176.666 114.256 176.666 116.314 176.666 118.371C167.026 118.371 157.385 118.371 147.746 118.371C147.746 105.454 147.746 92.5365 147.746 79.6191Z" fill="white"/>
<path opacity="0.974" fill-rule="evenodd" clip-rule="evenodd" d="M184.553 79.6191C186.877 79.6191 189.202 79.6191 191.526 79.6191C191.526 90.4408 191.526 101.262 191.526 112.084C198.271 112.084 205.015 112.084 211.759 112.084C211.759 114.18 211.759 116.276 211.759 118.371C202.691 118.371 193.622 118.371 184.553 118.371C184.553 105.454 184.553 92.5365 184.553 79.6191Z" fill="white"/>
<path opacity="0.985" fill-rule="evenodd" clip-rule="evenodd" d="M219.075 79.6191C221.361 79.6191 223.647 79.6191 225.934 79.6191C225.934 92.5365 225.934 105.454 225.934 118.371C223.647 118.371 221.361 118.371 219.075 118.371C219.075 105.454 219.075 92.5365 219.075 79.6191Z" fill="white"/>
<path opacity="0.98" fill-rule="evenodd" clip-rule="evenodd" d="M236.107 79.6191C238.28 79.5811 240.452 79.6191 242.623 79.7334C249.446 88.4811 256.247 97.2451 263.027 106.025C263.084 97.2235 263.104 88.4214 263.084 79.6191C265.333 79.6191 267.58 79.6191 269.829 79.6191C269.829 92.5365 269.829 105.454 269.829 118.371C267.923 118.391 266.017 118.371 264.113 118.314C257.042 109.295 250.012 100.246 243.023 91.1648C242.966 100.234 242.946 109.302 242.966 118.371C240.68 118.371 238.393 118.371 236.107 118.371C236.107 105.454 236.107 92.5365 236.107 79.6191Z" fill="white"/>
</g>
<defs>
<clipPath id="clip0_15_103">
<rect width="270" height="119" fill="white"/>
</clipPath>
</defs>
</svg>
