<svg width="416" height="416" viewBox="0 0 416 416" fill="none" xmlns="http://www.w3.org/2000/svg">
<g clip-path="url(#clip0_22_87)">
<path d="M332.765 237.039H83.2805V174.803H332.765V237.039ZM185.249 217.485C185.37 217.648 185.492 217.812 185.616 217.975C189.054 217.975 192.494 218.086 195.928 217.95C202.848 217.676 207.402 213.431 208.345 206.551C208.945 202.17 206.767 198.011 202.868 197.373C198.862 196.717 194.725 196.842 190.642 196.665C190.393 196.654 190.129 196.994 189.876 197.171C190.035 197.38 190.157 197.723 190.358 197.779C191.648 198.14 191.457 199.077 191.28 200.007C190.552 203.805 189.855 207.609 189.064 211.393C188.554 213.823 188.932 216.801 185.252 217.485H185.249ZM149.375 196.724C151.23 197.484 151.324 198.65 150.908 200.23C150.436 202.01 150.19 203.85 149.853 205.666C149.108 209.675 148.366 213.688 147.627 217.676C150.495 218.568 150.814 218.367 151.674 215.812C152.372 213.736 153.096 211.657 154.012 209.675C154.498 208.627 155.42 207.78 156.145 206.842C156.322 206.94 156.499 207.033 156.676 207.13C156.61 208.03 156.607 208.936 156.468 209.824C156.173 211.706 155.736 213.566 155.5 215.455C155.365 216.565 155.524 217.714 156.957 218.002C158.632 218.339 161.941 215.76 162.215 213.802C161.331 214.399 160.522 214.948 159.395 215.711C159.517 214.295 159.569 213.275 159.697 212.261C159.954 210.262 160.443 208.266 160.446 206.27C160.446 205.357 159.728 204.058 158.958 203.659C158.403 203.371 157.092 204.11 156.364 204.697C155.275 205.575 154.397 206.717 153.169 208.029C153.971 203.635 154.692 199.65 155.458 195.45C153.19 195.922 151.282 196.321 149.378 196.72L149.375 196.724ZM137.187 198.31C137.128 198.796 137.104 199.192 137.031 199.573C136.188 203.937 135.331 208.297 134.495 212.66C134.124 214.59 134.194 216.756 131.727 217.52H139.916C138.376 216.84 138.026 215.836 138.352 214.278C139.362 209.477 140.239 204.652 141.193 199.841C141.547 198.053 142.896 197.234 144.491 198.109C145.393 198.602 145.993 199.709 146.635 200.608C146.95 201.052 147.054 201.649 147.256 202.18C147.426 202.149 147.596 202.121 147.766 202.09C147.925 200.348 148.085 198.608 148.265 196.623C147.471 196.623 146.853 196.623 146.239 196.623C141.97 196.623 137.697 196.623 133.427 196.623C131.082 196.623 129.039 199.966 130.011 202.441C131.696 199.827 133.226 196.974 137.187 198.31ZM167.719 212.441C168.781 211.969 169.759 211.619 170.65 211.115C172.038 210.331 173.605 209.654 174.639 208.515C175.301 207.787 175.579 206.141 175.218 205.225C174.906 204.437 173.484 203.76 172.488 203.659C171.372 203.545 170.061 203.906 169.048 204.454C165.725 206.256 163.464 211.022 163.963 214.767C164.209 216.61 165.389 217.947 166.936 218.134C168.548 218.332 172.749 215.836 173.342 214.309C173.394 214.177 173.293 213.99 173.258 213.795C172.135 214.396 171.077 215.382 169.957 215.461C168.254 215.586 168.104 213.906 167.723 212.438L167.719 212.441ZM244.906 206.183C245.048 206.283 245.187 206.381 245.329 206.481C244.68 210.251 244.032 214.024 243.387 217.78C246.449 218.464 246.585 218.325 247.538 215.6C248.395 213.15 249.39 210.748 250.389 208.349C250.934 207.044 251.811 206.537 253.303 207.151C253.889 207.391 255.079 207.235 255.387 206.815C255.814 206.231 255.96 205.096 255.668 204.451C255.457 203.982 254.305 203.673 253.629 203.76C252.904 203.85 252.165 204.392 251.586 204.909C250.743 205.662 250.036 206.568 249.186 207.502C249.186 206.763 249.217 206.197 249.179 205.638C249.068 204.041 247.972 203.173 246.463 203.628C244.427 204.246 243.192 205.735 242.537 207.755C243.324 207.231 244.115 206.707 244.902 206.183H244.906ZM222.805 218.464C223.963 218.096 225.229 217.86 226.343 217.312C228.944 216.027 229.565 213.483 227.931 211.07C227.453 210.362 226.794 209.772 226.194 209.147C225.673 208.606 224.91 208.182 224.643 207.544C224.359 206.867 224.536 205.995 224.508 205.211C225.226 205.381 225.965 205.495 226.651 205.752C226.929 205.856 227.075 206.488 227.304 206.502C228.195 206.554 229.097 206.457 229.995 206.415C229.912 205.742 230.078 204.701 229.711 204.454C226.547 202.312 222.41 203.565 221.185 206.589C220.391 208.557 221.227 210.067 222.503 211.456C223.363 212.389 224.456 213.174 225.07 214.24C225.42 214.847 225.014 215.892 224.948 216.739C224.251 216.527 223.516 216.388 222.871 216.069C222.489 215.878 222.312 215.302 221.934 215.073C221.431 214.767 220.689 214.319 220.301 214.493C219.781 214.729 219.267 215.468 219.194 216.048C219.135 216.517 219.614 217.277 220.068 217.537C220.838 217.982 221.778 218.138 222.798 218.464H222.805ZM285.469 204.041C285.656 202.573 285.844 201.118 286.107 199.084C284.647 200.021 283.45 200.514 282.635 201.372C281.46 202.611 280.558 204.11 279.531 205.509C279.812 205.582 280.436 205.745 281.186 205.943C281.092 206.554 281.023 207.113 280.922 207.668C280.478 210.105 279.979 212.535 279.594 214.982C279.413 216.128 279.379 217.419 280.749 217.898C282.58 218.54 285.923 216.124 286.163 214.021C285.393 214.465 284.668 214.885 283.659 215.468C283.61 214.58 283.475 213.965 283.568 213.389C283.856 211.567 284.266 209.765 284.557 207.946C284.793 206.454 285.379 205.45 287.096 205.506C287.425 205.516 287.762 205.187 288.095 205.016C288.095 204.885 288.088 204.756 288.088 204.624C287.293 204.447 286.496 204.274 285.466 204.044L285.469 204.041ZM234.351 205.936C234.289 206.433 234.251 206.832 234.185 207.224C233.706 210.012 233.134 212.785 232.791 215.586C232.693 216.364 233.04 217.516 233.602 217.957C234.046 218.304 235.257 218.03 235.916 217.655C237.001 217.034 237.952 216.149 238.888 215.298C239.252 214.965 239.426 214.424 239.686 213.976C239.592 213.906 239.502 213.84 239.408 213.771C238.604 214.368 237.796 214.965 236.693 215.781C236.693 214.864 236.609 214.243 236.706 213.649C237.032 211.657 237.438 209.678 237.785 207.689C238.021 206.332 238.614 205.447 240.175 205.52C240.529 205.537 240.9 205.214 241.264 205.048C241.243 204.912 241.222 204.777 241.202 204.638C240.362 204.433 239.519 204.225 238.673 204.017C238.84 202.479 238.992 201.042 239.148 199.605C239.009 199.518 238.871 199.428 238.732 199.341C237.761 200 236.616 200.504 235.864 201.354C234.754 202.604 233.925 204.104 232.957 205.523C233.235 205.603 233.713 205.745 234.355 205.933L234.351 205.936ZM272.671 205.291C273.101 205.666 273.434 205.985 273.798 206.266C274.207 206.582 274.641 206.874 275.074 207.162C276.045 207.807 276.694 207.419 277.152 206.485C277.693 205.384 277.006 203.916 275.626 203.767C274.412 203.635 273.028 203.701 271.932 204.169C268.29 205.728 265.633 210.893 266.233 214.826C266.521 216.711 267.915 218.055 269.684 218.148C271.526 218.245 274.991 215.864 275.646 214.035C275.664 213.99 275.522 213.889 275.497 213.861C274.717 214.271 273.968 214.687 273.198 215.066C271.724 215.788 270.905 215.066 270.409 213.736C269.705 211.848 271.016 206.825 272.671 205.294V205.291ZM215.063 215.927C215.147 214.649 215.126 213.913 215.251 213.202C215.663 210.872 216.215 208.564 216.548 206.221C216.829 204.246 215.532 203.09 213.745 203.694C211.824 204.343 210.478 205.673 209.653 207.898C210.724 207.217 211.505 206.724 212.629 206.013C212.493 207.422 212.452 208.394 212.296 209.345C211.952 211.452 211.491 213.542 211.193 215.652C211.033 216.777 211.186 217.937 212.597 218.235C214.252 218.586 217.713 215.698 217.852 213.802C217.03 214.431 216.27 215.01 215.067 215.93L215.063 215.927ZM261.69 215.843C261.69 214.733 261.589 214 261.707 213.306C262.12 210.918 262.661 208.554 263.056 206.162C263.334 204.485 262.31 203.434 260.701 203.579C258.904 203.739 256.778 205.787 256.418 207.703C257.201 207.207 257.989 206.71 258.773 206.214C258.911 206.297 259.047 206.384 259.185 206.467C258.773 208.949 258.273 211.417 257.982 213.913C257.819 215.302 256.809 217.058 258.568 218.02C260.32 218.978 261.412 217.312 262.581 216.406C263.399 215.77 264.027 214.892 264.742 214.125L264.332 213.75C263.545 214.375 262.758 214.996 261.686 215.847L261.69 215.843ZM217.776 197.775C217.8 196.526 217.11 195.776 215.924 195.766C214.658 195.759 213.614 196.855 213.582 198.272C213.558 199.455 213.964 200.299 215.331 200.33C216.735 200.361 217.748 199.313 217.776 197.775ZM262.39 195.818C260.982 195.828 260.018 196.921 260.056 198.463C260.084 199.608 260.569 200.316 261.814 200.33C263.23 200.344 264.26 199.285 264.253 197.779C264.246 196.55 263.705 195.811 262.39 195.821V195.818Z" fill="white"/>
<path d="M53.8023 235.463C44.715 226.066 35.7005 216.742 26.4364 207.162H76.4789V243.603C77.2385 243.603 77.8454 243.603 78.4524 243.603C89.4924 243.603 100.532 243.603 111.572 243.603C113.931 243.603 114.139 243.811 114.143 246.182C114.149 251.153 114.143 256.124 114.143 261.091C114.143 261.657 114.143 262.223 114.143 262.889H27.2723C36.2173 253.642 44.9751 244.585 53.8058 235.459L53.8023 235.463Z" fill="white"/>
<path d="M362.243 235.459C371.042 244.561 379.779 253.593 388.766 262.886H302.024C301.982 262.327 301.913 261.824 301.913 261.32C301.906 256.235 301.903 251.15 301.913 246.061C301.916 243.825 302.152 243.603 304.428 243.6C315.409 243.596 326.39 243.6 337.374 243.6H339.424V207.176H389.588C380.348 216.732 371.334 226.056 362.246 235.452L362.243 235.459Z" fill="white"/>
<path d="M114.798 166.347C121.697 150.479 132.307 137.736 145.736 127.257C162.992 113.795 182.724 107.13 204.485 106.394C252.137 104.78 287.606 135.296 300.564 166.34C297.678 167.568 295.587 166.787 294.081 163.99C279.791 137.427 258.075 120.352 228.656 113.663C186.171 103.999 142.285 124.49 122.002 163.073C121.947 163.174 121.898 163.281 121.842 163.382C119.865 167.072 119.238 167.357 114.795 166.35L114.798 166.347Z" fill="white"/>
<path d="M269.074 287.903C270.055 288.632 271.297 289.559 272.553 290.489C242.353 320.412 184.874 328.201 144.214 297.453C145.13 296.214 146.045 294.971 146.801 293.943C188.967 320.238 229.471 318.11 269.074 287.9V287.903Z" fill="white"/>
<path d="M127.628 166.378C140.1 140.284 171.625 116.468 210.1 117.506C230.304 118.051 248.499 124.382 264.461 136.872C274.693 144.88 282.923 154.558 288.761 166.274C285.969 167.228 285.48 166.996 283.718 164.035C273.489 146.828 259.154 134.144 240.463 127.222C206.344 114.583 175.423 120.838 148.116 144.807C141.73 150.41 136.708 157.21 132.376 164.51C130.909 166.985 130.573 167.1 127.631 166.381L127.628 166.378Z" fill="white"/>
<path d="M264.558 281.624C235.756 309.512 185.169 313.469 151.456 288.389C151.945 287.702 152.437 287.011 153.003 286.22C155.788 287.709 158.5 289.202 161.251 290.618C172.558 296.443 184.455 300.344 197.173 301.469C211.404 302.729 224.997 300.174 238.049 294.485C246.085 290.982 253.56 286.504 260.507 281.186C262.196 279.892 263.264 280.02 264.558 281.624Z" fill="white"/>
<path d="M213.777 151.993C209.552 148.64 205.55 148.692 201.318 152.406C201.707 150.087 202.154 148.449 202.189 146.8C202.209 145.845 201.772 144.703 201.165 143.953C200.135 142.676 198.803 141.642 197.517 140.191C202.716 140.316 206.198 138.212 207.554 132.804C208.997 138.052 212.306 140.409 217.758 140.243C213.034 143.089 212.049 146.977 213.777 151.996V151.993Z" fill="white"/>
<path d="M174.289 146.123C175.149 147.831 175.912 149.233 176.567 150.688C177.143 151.962 177.965 152.673 179.436 152.774C180.979 152.882 182.505 153.236 184.416 153.541C183.313 154.641 182.443 155.655 181.427 156.495C179.935 157.727 179.373 159.154 179.842 161.07C180.15 162.341 180.23 163.67 180.469 165.375C178.78 164.503 177.351 163.837 175.995 163.042C174.826 162.358 173.8 162.33 172.617 163.042C171.254 163.868 169.783 164.521 168.056 165.406C168.358 163.583 168.524 162.098 168.861 160.654C169.207 159.154 168.899 157.984 167.754 156.915C166.714 155.947 165.829 154.812 164.646 153.499C166.408 153.208 167.841 152.878 169.294 152.757C170.681 152.639 171.469 151.969 172.003 150.726C172.634 149.261 173.411 147.862 174.285 146.12L174.289 146.123Z" fill="white"/>
<path d="M240.882 146.113C241.732 147.807 242.495 149.216 243.154 150.667C243.73 151.934 244.535 152.673 246.016 152.77C247.563 152.875 249.092 153.232 251.014 153.541C249.904 154.652 249.033 155.669 248.014 156.506C246.508 157.745 245.991 159.189 246.442 161.098C246.744 162.372 246.824 163.701 247.015 165.076C244.882 164.222 242.88 162.785 240.889 162.795C238.878 162.809 236.876 164.257 234.691 165.149C234.969 163.469 235.402 161.886 235.434 160.3C235.451 159.262 235.097 158.071 234.521 157.21C233.675 155.94 232.485 154.902 231.202 153.506C233.026 153.211 234.525 152.899 236.034 152.743C237.272 152.614 238.014 152.024 238.517 150.91C239.2 149.393 239.984 147.925 240.882 146.116V146.113Z" fill="white"/>
<path d="M235.146 262.372C234.476 264.306 234.07 266.256 233.158 267.933C231.41 271.144 227.321 271.092 225.413 267.961C223.155 264.257 223.055 260.512 225.292 256.745C227.258 253.43 231.431 253.347 233.235 256.745C234.129 258.429 234.494 260.394 235.146 262.376V262.372ZM225.736 262.268C226.228 264.042 226.551 265.819 227.252 267.433C227.55 268.121 228.653 268.884 229.35 268.85C230.047 268.815 230.987 267.954 231.317 267.228C232.756 264.038 232.839 260.716 231.452 257.495C231.115 256.714 230.137 255.77 229.402 255.725C228.681 255.68 227.539 256.523 227.206 257.259C226.506 258.804 226.218 260.536 225.736 262.275V262.268Z" fill="white"/>
<path d="M164.965 258.3C164.73 257.669 164.518 257.308 164.469 256.926C164.268 255.367 163.54 254.628 161.892 255.037C160.151 255.471 159.367 256.533 159.898 258.21C160.158 259.033 160.796 259.793 161.417 260.435C162.09 261.136 162.992 261.612 163.706 262.278C166.159 264.58 165.93 267.753 162.954 269.315C161.57 270.04 159.742 270.301 158.16 270.183C155.732 269.999 154.99 267.825 156.447 265.455C156.763 266.211 156.877 267.048 157.352 267.503C158.122 268.246 159.111 269.169 160.044 269.211C160.887 269.249 162.229 268.388 162.534 267.603C162.874 266.732 162.586 265.298 162.035 264.472C161.289 263.361 160.006 262.619 158.986 261.681C157.037 259.88 156.738 257.884 158.101 255.992C159.569 253.958 163.051 252.965 164.941 254.048C166.075 254.697 166.127 255.995 164.962 258.304L164.965 258.3Z" fill="white"/>
<path d="M257.607 263.747C257.059 263.851 256.619 263.938 256.178 264.018C253.417 264.504 251.454 263.296 250.785 260.703C250.129 258.165 251.537 255.381 253.931 254.475C256.317 253.569 258.728 254.527 259.824 256.964C261.079 259.748 260.802 262.504 259.178 265.059C257.704 267.378 255.54 268.895 252.991 269.849C252.547 270.016 252.037 270.009 251.475 269.915C253.844 268.2 256.633 266.979 257.607 263.747ZM255.169 262.785C257.84 262.827 258.807 261.706 258.405 259.731C258.245 258.946 257.992 258.179 257.739 257.415C257.347 256.238 256.855 255.01 255.36 255.114C253.962 255.211 253.216 256.336 253.091 257.578C252.97 258.779 253.029 260.116 253.462 261.213C253.771 261.997 254.829 262.49 255.172 262.785H255.169Z" fill="white"/>
<path d="M211.474 258.286C212.077 256.016 213.197 254.864 214.952 254.465C216.711 254.062 218.3 254.485 219.402 256.037C220.481 257.551 220.596 259.224 219.607 260.755C218.424 262.591 217.02 264.285 215.705 266.034C215.292 266.579 214.848 267.104 214.398 267.662C217.29 268.787 218.723 268.471 220.353 266.406C221.102 268.075 220.443 269.846 218.709 270.009C216.225 270.242 213.7 270.068 210.773 270.068C211.911 268.648 212.871 267.53 213.739 266.343C214.956 264.67 216.253 263.028 217.235 261.216C218.202 259.432 217.828 257.648 216.697 256.766C215.806 256.072 213.801 256.436 212.389 257.554C212.216 257.693 212.042 257.832 211.474 258.293V258.286Z" fill="white"/>
<path d="M177.653 262.164C178.246 261.619 179.009 260.737 179.949 260.123C180.511 259.755 181.51 259.494 182.013 259.758C182.484 260.008 182.804 261.022 182.769 261.674C182.682 263.219 182.335 264.75 182.106 266.288C182.016 266.906 181.961 267.527 181.867 268.346C182.602 268.062 183.133 267.857 183.667 267.652C183.775 267.812 183.882 267.971 183.99 268.131C182.963 268.815 182.016 269.745 180.886 270.12C179.675 270.523 179.713 269.44 179.838 268.596C180.185 266.274 180.546 263.952 180.948 261.303C178.01 262.539 176.883 264.719 176.168 267.215C175.995 267.822 176.04 268.537 175.731 269.051C175.437 269.54 174.809 269.832 174.327 270.214C174.164 269.696 173.8 269.148 173.876 268.666C174.202 266.558 174.667 264.472 175.059 262.376C175.118 262.063 175.066 261.73 175.066 261.324C174.41 261.549 173.865 261.737 173.317 261.928C173.224 261.751 173.13 261.574 173.033 261.397C174.098 260.8 175.163 260.199 176.227 259.602C176.685 260.428 177.143 261.251 177.649 262.164H177.653Z" fill="white"/>
<path d="M241.67 256.763H239.502C239.44 256.62 239.374 256.478 239.311 256.336C240.716 255.645 242.121 254.951 243.865 254.093C243.865 256.717 243.865 258.998 243.865 261.279C243.865 262.893 243.775 264.517 243.893 266.125C243.987 267.402 244.334 268.662 244.58 269.995H239.793C241.691 268.891 241.739 267.409 241.694 265.805C241.611 262.816 241.67 259.821 241.67 256.766V256.763Z" fill="white"/>
<path d="M199.958 267.367C199.424 269.315 197.874 270.491 196.188 270.269C194.433 270.037 194.069 268.662 193.913 267.235C193.594 264.354 195.706 260.824 198.353 259.821C199.459 259.401 200.777 259.106 201.457 260.331C202.102 261.494 201.429 262.58 200.364 263.285C199.358 263.952 198.346 264.653 197.243 265.118C195.918 265.677 195.855 266.548 196.341 267.624C196.885 268.832 197.77 268.794 198.751 268.127C199.116 267.881 199.494 267.662 199.958 267.371V267.367ZM199.931 262.06C199.886 261.803 199.841 261.543 199.795 261.286C199.24 261.157 198.37 260.744 198.19 260.949C197.406 261.827 196.802 262.875 196.202 263.899C196.14 264.004 196.532 264.375 196.712 264.622C197.784 263.768 198.859 262.914 199.931 262.06Z" fill="white"/>
<path d="M191.957 267.77C191.173 268.395 190.427 269.072 189.602 269.631C187.659 270.939 185.838 270.169 185.342 267.874C184.68 264.799 187.073 260.598 190.028 259.654C191.939 259.043 192.768 259.54 192.942 261.664C192.3 261.47 191.655 261.431 191.225 261.112C189.959 260.168 189.12 260.643 188.69 261.883C188.183 263.337 187.795 264.854 187.583 266.375C187.496 266.999 187.815 268.01 188.287 268.294C188.724 268.561 189.623 268.159 190.285 267.94C190.75 267.787 191.156 267.451 191.589 267.194C191.711 267.385 191.835 267.576 191.957 267.763V267.77Z" fill="white"/>
<path d="M169.11 261.06C168.226 261.515 167.73 261.768 167.175 262.053C167.442 260.886 169.308 259.14 170.106 259.46C170.567 259.644 171.042 260.578 170.983 261.119C170.785 262.945 170.345 264.747 170.005 266.555C169.901 267.114 169.818 267.676 169.693 268.457C170.283 268.253 170.713 268.103 171.455 267.846C171.063 268.475 170.9 269.047 170.532 269.256C169.828 269.658 169.006 269.853 168.233 270.134C168.087 269.419 167.737 268.673 167.834 267.992C168.149 265.784 168.628 263.604 169.11 261.064V261.06Z" fill="white"/>
<path d="M172.107 254.947C171.542 255.586 171.011 256.183 170.265 257.016C169.78 256.509 169.447 256.155 169.121 255.818C169.877 254.437 170.643 253.847 172.103 254.947H172.107Z" fill="white"/>
<path d="M195.068 216.864C192.668 216.885 192.227 216.343 192.692 213.958C193.552 209.536 194.402 205.107 195.273 200.688C195.807 197.977 197.041 197.269 199.73 198.091C202.508 198.942 204.634 202.614 203.933 205.607C203.42 207.793 202.799 209.973 202.022 212.08C200.895 215.149 198.311 216.836 195.064 216.86L195.068 216.864Z" fill="white"/>
<path d="M167.473 210.716C168.833 208.509 168.486 205.825 170.966 204.669C172.509 207.089 171.153 209.63 167.473 210.716Z" fill="white"/>
</g>
<defs>
<clipPath id="clip0_22_87">
<rect width="416" height="416" fill="white"/>
</clipPath>
</defs>
</svg>
