<svg width="425" height="248" viewBox="0 0 425 248" fill="none" xmlns="http://www.w3.org/2000/svg">
<path d="M66.4 80.5402C162.826 80.5402 259.252 80.5402 358.6 80.5402C358.6 104.647 358.6 128.753 358.6 153.59C262.174 153.59 165.748 153.59 66.4 153.59C66.4 129.484 66.4 105.377 66.4 80.5402Z" fill="#FDF3E7"/>
<path d="M0.249146 118.283C19.5343 118.283 38.8195 118.283 58.6891 118.283C58.6891 132.479 58.6891 146.675 58.6891 161.301C73.153 161.301 87.6169 161.301 102.519 161.301C102.519 168.801 102.519 176.301 102.519 184.028C69.0379 184.028 35.5566 184.028 1.06081 184.028C2.81784 181.978 4.57958 180.068 6.50389 178.195C7.59581 177.12 8.62901 176.023 9.62294 174.857C11.9165 172.205 14.4666 169.788 16.9595 167.326C19.2079 165.102 21.4331 162.886 23.4857 160.477C24.9856 158.782 26.6184 157.211 28.2263 155.619C28.5812 155.266 28.9362 154.913 29.3019 154.549C30.1684 153.688 31.0358 152.827 31.9041 151.967C30.3115 150.086 28.6888 148.241 27.0088 146.437C26.6548 146.057 26.6548 146.057 26.2937 145.669C23.6814 142.888 20.9735 140.202 18.2571 137.523C16.7548 136.036 15.2711 134.556 13.8985 132.947C11.8955 130.61 9.6665 128.484 7.47805 126.323C6.60864 125.465 5.74063 124.605 4.87343 123.744C4.57979 123.455 4.57979 123.455 4.28021 123.161C3.38897 122.276 2.56927 121.385 1.78638 120.402C1.1385 119.469 1.1385 119.469 0.249146 119.094C0.249146 118.827 0.249146 118.559 0.249146 118.283Z" fill="#FCF1E5"/>
<path d="M366.311 118.283C385.596 118.283 404.881 118.283 424.751 118.283C424.751 118.551 424.751 118.818 424.751 119.094C424.475 119.312 424.198 119.53 423.914 119.754C422.962 120.524 422.303 121.174 421.531 122.097C419.286 124.695 416.802 127.066 414.36 129.476C411.457 132.323 411.457 132.323 408.72 135.328C406.566 137.852 404.14 140.133 401.78 142.463C398.707 145.5 395.789 148.584 393.096 151.967C393.388 152.257 393.681 152.548 393.982 152.847C395.081 153.938 396.178 155.03 397.275 156.123C397.747 156.594 398.22 157.064 398.693 157.533C400.98 159.803 403.239 162.063 405.33 164.518C407.109 166.508 409.053 168.354 410.952 170.229C415.831 175.046 415.831 175.046 418.025 177.617C419.114 178.86 420.297 180.007 421.479 181.162C422.309 181.973 423.128 182.791 423.939 183.622C423.939 183.756 423.939 183.89 423.939 184.028C390.458 184.028 356.977 184.028 322.481 184.028C322.481 176.528 322.481 169.028 322.481 161.301C336.945 161.301 351.409 161.301 366.311 161.301C366.311 147.105 366.311 132.909 366.311 118.283Z" fill="#FCF1E5"/>
<path d="M258.765 9.92493C259.363 10.181 259.961 10.4361 260.56 10.6906C272.766 15.944 283.672 23.3644 293.364 32.4249C294.438 33.4253 295.532 34.3963 296.634 35.3656C298.369 36.9269 299.878 38.5784 301.377 40.3624C301.731 40.7616 302.085 41.1608 302.449 41.572C309.28 49.3047 314.773 57.8609 319.234 67.1474C319.638 67.9599 320.044 68.7717 320.452 69.5824C320.719 70.1181 320.987 70.6538 321.263 71.2058C319.121 71.2058 316.978 71.2058 314.77 71.2058C314.415 70.505 314.415 70.505 314.053 69.7901C309.255 60.4241 303.476 51.899 296.507 44.0149C296.219 43.6879 296.219 43.6879 295.924 43.3543C285.143 31.2193 271.613 21.9807 256.736 15.6066C256.041 15.3013 256.041 15.3013 255.333 14.9899C254.185 14.4953 253.031 14.029 251.866 13.5774C251.377 13.3875 250.888 13.1976 250.384 13.002C238.28 8.44753 225.336 6.5868 212.449 6.57681C212.129 6.57653 211.809 6.57626 211.479 6.57598C199.976 6.59149 188.498 8.19596 177.598 11.9541C177.196 12.0823 176.794 12.2104 176.379 12.3425C163.317 16.5189 151.321 23.2184 140.667 31.8399C140.449 32.0164 140.23 32.1928 140.004 32.3746C134.151 37.1365 128.609 42.4734 124.028 48.4791C123.721 48.861 123.413 49.2429 123.096 49.6364C117.876 56.2027 113.73 63.3963 109.824 70.7999C107.815 70.7999 105.806 70.7999 103.737 70.7999C105.658 61.193 113.757 51.3998 119.97 44.0149C120.173 43.7711 120.376 43.5274 120.586 43.2762C124.628 38.4447 128.927 33.8541 133.768 29.8108C134.12 29.5089 134.471 29.2071 134.834 28.8961C145.034 20.228 156.855 12.8387 169.482 8.3016C169.916 8.13419 170.35 7.96678 170.797 7.79431C180.71 4.06266 191.401 1.8606 201.948 0.996598C202.236 0.971552 202.524 0.946507 202.821 0.920702C221.442 -0.611772 241.691 2.13878 258.765 9.92493Z" fill="#FCEFE4"/>
<path d="M283.115 212.842C284.348 213.414 285.385 214.095 286.463 214.922C286.893 215.25 286.893 215.25 287.332 215.584C287.547 215.751 287.763 215.917 287.985 216.088C286.263 218.228 284.48 219.884 282.278 221.516C281.973 221.745 281.668 221.974 281.354 222.21C280.457 222.88 279.555 223.544 278.651 224.205C278.296 224.464 278.296 224.464 277.935 224.729C276.441 225.812 274.919 226.848 273.375 227.858C273.115 228.028 272.856 228.198 272.589 228.374C267.841 231.458 262.891 233.951 257.752 236.315C256.905 236.708 256.064 237.109 255.227 237.522C245.543 242.216 234.476 244.725 223.863 246.12C223.47 246.173 223.47 246.173 223.07 246.226C218.358 246.846 213.723 247.065 208.974 247.033C208.639 247.032 208.304 247.031 207.959 247.029C184.187 246.925 161.265 240.411 141.454 227.097C141.176 226.913 140.898 226.73 140.611 226.541C138.723 225.237 138.723 225.237 138.324 224.203C138.232 223.393 138.232 223.393 138.814 222.436C139.083 222.116 139.351 221.796 139.627 221.466C139.895 221.141 140.162 220.817 140.438 220.483C140.647 220.238 140.857 219.993 141.073 219.741C141.301 219.89 141.529 220.038 141.764 220.191C161.375 232.824 182.229 241.019 205.876 240.972C207.211 240.971 208.545 240.981 209.879 240.991C224.526 241.035 239.783 238.282 253.06 231.907C254 231.46 254.948 231.031 255.897 230.602C265.879 226.037 274.886 220.097 283.115 212.842Z" fill="#FCEFE5"/>
<path d="M230.762 15.2009C231.146 15.2727 231.53 15.3445 231.926 15.4185C239.719 16.9164 247.43 18.9008 254.707 22.1001C255.192 22.312 255.677 22.5238 256.176 22.7421C264.567 26.493 272.321 31.3441 279.462 37.1159C279.677 37.288 279.891 37.4602 280.112 37.6375C286.423 42.7435 292.45 48.5274 297.228 55.1065C297.744 55.8097 298.276 56.4979 298.812 57.1857C307.059 67.8981 307.059 67.8981 307.059 70.8001C305.515 71.0293 304.132 71.1105 302.595 70.8001C301.409 69.7433 300.803 68.4598 300.109 67.0461C299.702 66.2952 299.292 65.5453 298.881 64.7966C298.685 64.4318 298.489 64.067 298.288 63.6911C297.102 61.569 295.595 59.7033 294.072 57.8134C293.782 57.4457 293.492 57.0779 293.193 56.699C290.904 53.8437 288.472 51.1333 285.956 48.4793C285.764 48.2756 285.572 48.072 285.374 47.8622C282.505 44.8398 279.463 42.1888 276.129 39.6912C275.424 39.1598 274.728 38.6179 274.033 38.0734C265.877 31.7828 256.671 27.1503 246.996 23.7234C246.714 23.6214 246.432 23.5194 246.142 23.4143C241.107 21.599 236.017 20.2731 230.762 19.2593C230.42 19.1916 230.077 19.124 229.724 19.0544C212.417 15.803 193.208 17.9395 176.856 24.198C176.038 24.5111 175.216 24.8134 174.393 25.1137C158.372 31.1769 143.023 42.645 132.551 56.1901C132.242 56.5688 131.932 56.9476 131.614 57.3378C128.294 61.4814 125.188 66.0458 122.811 70.8001C121.338 70.8001 119.864 70.8001 118.347 70.8001C122.104 62.5702 127.52 55.2654 133.664 48.66C134.452 47.8061 135.203 46.9347 135.95 46.0443C139.283 42.2292 143.285 39.0725 147.298 36.0104C147.914 35.5375 148.522 35.055 149.13 34.5715C156.765 28.6034 165.706 23.8931 174.757 20.4768C175.215 20.3031 175.673 20.1294 176.145 19.9504C193.327 13.8604 212.764 11.7843 230.762 15.2009Z" fill="#FBEDE3"/>
<path d="M275.404 203.508C276.776 204.096 277.619 204.877 278.651 205.943C272.987 211.47 266.399 215.781 259.577 219.741C259.213 219.956 259.213 219.956 258.842 220.176C235.902 233.663 206.512 236.232 180.972 229.887C179.981 229.624 178.991 229.353 178.004 229.075C177.562 228.951 177.12 228.826 176.665 228.698C165.801 225.488 155.74 220.356 146.349 214.059C146.925 212.868 147.56 211.854 148.378 210.813C149.817 211.334 150.936 211.95 152.158 212.867C156.663 216.078 161.564 218.53 166.667 220.634C167.423 220.947 168.176 221.268 168.928 221.589C174.666 223.984 180.574 225.663 186.653 226.945C187.035 227.025 187.417 227.106 187.811 227.189C189.003 227.43 190.198 227.649 191.397 227.858C191.831 227.934 192.264 228.011 192.711 228.09C197.062 228.768 201.38 228.807 205.776 228.797C207.035 228.796 208.293 228.806 209.552 228.816C220.145 228.849 230.415 227.077 240.441 223.688C241.236 223.42 242.035 223.16 242.833 222.9C246.258 221.747 249.418 220.245 252.612 218.573C253.518 218.103 254.43 217.647 255.344 217.192C261.873 213.903 267.819 209.878 273.375 205.131C274.05 204.588 274.726 204.046 275.404 203.508Z" fill="#FBEDE3"/>
<path d="M190.991 106.108C192.809 106.057 194.627 106.02 196.445 105.996C197.062 105.986 197.678 105.972 198.294 105.955C202.523 105.836 206.706 105.89 210.075 108.862C212.534 111.502 213.129 114.09 213.05 117.628C212.642 121.776 210.739 125.267 207.63 128.023C203.087 131.448 198.416 131.433 192.969 131.345C192.303 131.339 191.638 131.334 190.972 131.329C189.355 131.316 187.738 131.295 186.121 131.269C186.121 130.868 186.121 130.466 186.121 130.052C187.527 129.851 187.527 129.851 188.962 129.646C189.001 129.397 189.04 129.148 189.08 128.891C189.781 124.561 190.621 120.257 191.447 115.949C191.6 115.15 191.753 114.351 191.906 113.552C192.276 111.612 192.648 109.671 193.02 107.731C192.35 107.731 191.681 107.731 190.991 107.731C190.991 107.195 190.991 106.66 190.991 106.108Z" fill="black"/>
<path d="M150.813 104.89C150.967 107.957 150.385 110.817 149.799 113.818C149.654 114.58 149.654 114.58 149.505 115.358C149.268 116.604 149.027 117.849 148.784 119.094C149.038 118.811 149.293 118.527 149.555 118.235C149.886 117.866 150.218 117.496 150.56 117.116C150.889 116.749 151.219 116.381 151.558 116.003C153.164 114.235 153.164 114.235 154.643 114.047C156.089 114.224 156.089 114.224 156.791 115.103C158.412 118.723 156.459 124.223 155.683 128.023C156.784 127.368 157.864 126.704 158.93 125.993C158.93 127.617 158.93 127.617 158.042 128.631C157.666 128.966 157.289 129.301 156.901 129.646C156.411 130.098 156.411 130.098 155.912 130.559C154.688 131.395 153.92 131.675 152.437 131.675C151.473 131.066 151.473 131.066 150.813 130.052C150.616 127.496 151.143 125.072 151.625 122.569C151.741 121.95 151.741 121.95 151.86 121.318C152.05 120.306 152.242 119.294 152.437 118.283C148.675 121.195 147.779 125.132 146.752 129.61C146.349 130.863 146.349 130.863 145.132 131.675C142.962 131.808 142.962 131.808 141.885 131.269C142.097 128.043 142.5 124.921 143.129 121.751C143.25 121.127 143.25 121.127 143.373 120.489C143.627 119.178 143.885 117.868 144.142 116.558C144.317 115.661 144.491 114.764 144.665 113.868C145.088 111.686 145.515 109.505 145.943 107.325C145.14 107.325 144.336 107.325 143.508 107.325C143.642 106.923 143.776 106.522 143.914 106.108C144.912 105.904 145.909 105.701 146.907 105.499C147.332 105.412 147.332 105.412 147.766 105.323C149.91 104.89 149.91 104.89 150.813 104.89Z" fill="black"/>
<path d="M211.688 31.8402C212.846 32.7606 213.181 33.7603 213.673 35.1239C214.593 37.5522 214.593 37.5522 216.553 39.1226C218.552 39.6922 220.576 39.8591 222.646 39.9569C222.646 40.4926 222.646 41.0283 222.646 41.5802C221.901 42.1438 221.137 42.6812 220.363 43.2035C219.094 44.1764 218.268 44.9917 218.05 46.6202C218.085 49.0324 218.49 51.4001 218.993 53.7552C218.553 53.5114 218.112 53.2676 217.659 53.0165C217.072 52.7043 216.486 52.3925 215.899 52.0811C215.61 51.9195 215.32 51.7578 215.022 51.5913C213.205 50.6382 213.205 50.6382 211.189 50.7495C209.841 51.4338 208.542 52.159 207.245 52.934C206.412 53.3494 206.412 53.3494 205.195 53.3494C205.281 52.8492 205.367 52.3491 205.455 51.8338C206.036 48.225 206.036 48.225 205.142 44.7954C203.88 43.207 202.359 41.9663 200.731 40.7685C201.947 39.5526 203.403 39.6627 205.043 39.5003C205.368 39.4653 205.694 39.4302 206.029 39.3941C206.833 39.308 207.637 39.2262 208.442 39.1452C208.549 38.7968 208.657 38.4484 208.768 38.0894C209.257 36.6984 209.851 35.4352 210.522 34.123C210.74 33.693 210.959 33.263 211.184 32.8199C211.351 32.4966 211.517 32.1733 211.688 31.8402Z" fill="#FCEFE4"/>
<path d="M172.728 47.6676C173.715 48.448 173.984 48.9925 174.415 50.2041C175.252 52.597 175.252 52.597 176.787 54.5668C179.197 55.6094 181.906 55.6756 184.497 55.7843C182.938 57.6203 181.392 59.4158 179.627 61.0601C179.36 61.0601 179.092 61.0601 178.816 61.0601C178.904 61.51 178.992 61.9599 179.082 62.4234C179.196 63.0174 179.31 63.6113 179.425 64.2053C179.483 64.5014 179.541 64.7975 179.601 65.1026C179.866 66.4956 180.033 67.753 180.033 69.1768C178.042 68.6005 176.338 67.7201 174.54 66.7116C173.301 66.2461 172.762 66.3312 171.511 66.7418C170.729 67.1321 169.959 67.5479 169.203 67.9846C167.13 69.1768 167.13 69.1768 166.235 69.1768C166.269 68.9521 166.302 68.7275 166.337 68.4961C167.158 63.8775 167.158 63.8775 165.793 59.6318C164.547 58.4115 163.334 57.3777 161.771 56.5959C161.771 56.3281 161.771 56.0602 161.771 55.7843C164.449 55.3825 167.128 54.9807 169.887 54.5668C170.021 53.8971 170.155 53.2275 170.293 52.5376C170.685 51.673 171.101 50.8191 171.536 49.9758C171.758 49.5421 171.981 49.1084 172.21 48.6616C172.381 48.3336 172.552 48.0056 172.728 47.6676Z" fill="#FCF0E5"/>
<path d="M250.648 47.6676C251.635 48.448 251.904 48.9925 252.335 50.2041C253.172 52.597 253.172 52.597 254.707 54.5668C257.117 55.6094 259.826 55.6756 262.417 55.7843C260.858 57.6203 259.312 59.4158 257.547 61.0601C257.28 61.0601 257.012 61.0601 256.736 61.0601C256.824 61.51 256.912 61.9599 257.002 62.4234C257.116 63.0174 257.23 63.6113 257.345 64.2053C257.403 64.5014 257.461 64.7975 257.521 65.1026C257.786 66.4956 257.953 67.753 257.953 69.1768C256.1 68.4617 254.34 67.5974 252.563 66.7116C251.268 66.2706 250.719 66.3129 249.431 66.7418C248.649 67.1321 247.879 67.5479 247.123 67.9846C245.05 69.1768 245.05 69.1768 244.155 69.1768C244.189 68.9521 244.222 68.7275 244.257 68.4961C245.078 63.8775 245.078 63.8775 243.713 59.6318C242.467 58.4115 241.254 57.3777 239.691 56.5959C239.691 56.3281 239.691 56.0602 239.691 55.7843C242.369 55.3825 245.048 54.9807 247.807 54.5668C247.941 53.8971 248.075 53.2275 248.213 52.5376C248.605 51.673 249.021 50.8191 249.456 49.9758C249.679 49.5421 249.901 49.1084 250.13 48.6616C250.301 48.3336 250.472 48.0056 250.648 47.6676Z" fill="#FCF0E5"/>
<path d="M198.702 107.731C201.072 107.606 202.665 107.746 204.789 108.949C206.499 110.526 207.137 111.926 207.321 114.209C207.421 118.807 206.756 123.036 203.978 126.805C201.408 129.263 199.34 129.74 195.891 129.714C195.049 129.646 195.049 129.646 194.643 129.24C194.524 126.765 194.84 124.516 195.325 122.094C195.395 121.733 195.465 121.372 195.538 121C195.686 120.243 195.835 119.486 195.986 118.729C196.216 117.571 196.441 116.412 196.665 115.253C196.81 114.515 196.955 113.777 197.101 113.039C197.167 112.693 197.234 112.348 197.303 111.992C197.368 111.669 197.433 111.347 197.5 111.015C197.556 110.732 197.612 110.45 197.669 110.159C197.911 109.279 198.269 108.533 198.702 107.731Z" fill="#FDF3E7"/>
<path d="M122.811 105.702C129.373 105.702 135.935 105.702 142.697 105.702C142.563 107.979 142.429 110.255 142.291 112.601C141.755 112.601 141.219 112.601 140.668 112.601C140.617 112.157 140.567 111.714 140.515 111.257C140.361 109.73 140.361 109.73 139.45 108.543C138.279 108.305 138.279 108.305 136.964 108.264C136.52 108.237 136.075 108.21 135.617 108.183C135.104 108.16 135.104 108.16 134.58 108.137C134.524 108.913 134.524 108.913 134.466 109.705C134.133 113.033 133.411 116.3 132.754 119.576C132.557 120.562 132.362 121.547 132.167 122.533C132.046 123.142 131.924 123.751 131.802 124.36C131.453 126.117 131.166 127.87 130.928 129.646C131.597 129.78 132.267 129.914 132.957 130.052C132.957 130.454 132.957 130.855 132.957 131.269C129.609 131.269 126.26 131.269 122.811 131.269C122.811 130.868 122.811 130.466 122.811 130.052C123.614 129.784 124.418 129.516 125.246 129.24C125.296 128.988 125.346 128.735 125.397 128.475C125.916 125.855 126.436 123.235 126.957 120.615C127.152 119.637 127.346 118.658 127.54 117.679C127.818 116.275 128.097 114.871 128.377 113.467C128.463 113.027 128.55 112.587 128.639 112.134C128.721 111.728 128.802 111.322 128.886 110.903C128.957 110.545 129.028 110.186 129.101 109.816C129.304 108.948 129.304 108.948 129.71 108.137C126.697 108.033 126.697 108.033 124.003 109.145C122.981 110.34 122.274 111.593 121.593 113.007C121.192 112.873 120.79 112.739 120.376 112.601C120.55 111.907 120.728 111.214 120.908 110.521C121.007 110.135 121.106 109.749 121.208 109.351C121.593 108.137 121.593 108.137 122.811 105.702Z" fill="black"/>
<path d="M240.097 174.288C242.12 175.757 242.796 177.578 243.344 179.97C243.678 183.053 243.971 186.805 242.229 189.5C242.061 189.703 241.893 189.906 241.72 190.115C241.548 190.327 241.376 190.538 241.199 190.756C240.059 191.911 239.028 192.291 237.459 192.373C235.643 192.257 234.565 191.762 233.198 190.521C230.921 187.442 230.924 184.067 231.169 180.375C231.61 178.155 232.36 176.294 234.009 174.694C235.851 173.502 238.059 173.678 240.097 174.288Z" fill="black"/>
<path d="M173.565 114.833C174.454 115.98 174.674 116.794 174.569 118.248C174.048 120.278 172.652 121.464 170.937 122.563C169.079 123.562 167.581 124.248 165.423 123.964C165.691 125.17 165.959 126.375 166.235 127.617C167.502 128.029 168.331 128.185 169.554 127.598C170.362 127.086 171.146 126.559 171.916 125.994C171.916 127.617 171.916 127.617 171.175 128.368C170.85 128.606 170.526 128.843 170.192 129.088C169.872 129.328 169.551 129.567 169.221 129.814C167.518 130.959 166.306 131.47 164.193 131.431C162.844 131.158 162.197 130.275 161.365 129.24C161.231 129.106 161.097 128.972 160.959 128.834C160.619 124.383 161.163 121.331 163.928 117.834C166.549 114.885 169.655 112.918 173.565 114.833Z" fill="black"/>
<path d="M270.534 173.882C272.175 175.069 273.122 176.439 273.781 178.346C274.228 181.743 273.775 184.479 271.752 187.274C269.756 189.467 267.594 191.029 264.853 192.144C264.317 192.144 263.781 192.144 263.229 192.144C263.229 191.877 263.229 191.609 263.229 191.333C263.528 191.185 263.827 191.038 264.134 190.886C267.265 189.273 269.404 187.927 270.534 184.434C270.057 184.584 269.58 184.735 269.088 184.89C267.316 185.326 266.145 185.185 264.447 184.434C263.142 183.301 262.712 182.294 262.443 180.629C262.283 178.341 262.972 176.699 264.447 174.947C266.188 173.533 268.394 173.581 270.534 173.882Z" fill="#F8E7DF"/>
<path d="M259.577 114.224C260.338 114.833 260.338 114.833 260.794 115.848C260.889 116.952 260.85 117.982 260.794 119.094C261.012 118.743 261.229 118.391 261.454 118.029C262.425 116.598 263.414 115.216 264.852 114.224C266.321 114 267.187 113.955 268.505 114.656C269.168 115.94 268.851 116.923 268.505 118.283C267.104 119.217 266.786 119.151 265.182 118.942C264.817 118.897 264.451 118.852 264.074 118.806C263.795 118.767 263.516 118.728 263.229 118.689C260.291 122.414 259.223 126.779 257.953 131.269C256.614 131.269 255.275 131.269 253.895 131.269C254.148 126.594 255.042 122.062 255.924 117.471C254.823 118.126 253.743 118.79 252.677 119.5C252.544 119.232 252.41 118.964 252.272 118.689C256.355 113.734 256.355 113.734 259.577 114.224Z" fill="black"/>
<path d="M303.812 109.76C303.755 110.487 303.696 111.214 303.635 111.941C303.602 112.346 303.569 112.751 303.535 113.168C303.407 114.224 303.407 114.224 303.001 115.036C304.072 115.036 305.144 115.036 306.247 115.036C306.247 115.706 306.247 116.375 306.247 117.065C305.042 117.065 303.837 117.065 302.595 117.065C302.553 117.525 302.511 117.986 302.468 118.46C302.132 121.536 301.527 124.575 300.972 127.617C302.329 127.323 303.14 126.879 304.218 125.993C304.021 127.729 303.585 128.423 302.24 129.519C301.956 129.755 301.673 129.991 301.381 130.234C299.943 131.344 299.152 131.904 297.319 131.675C296.466 131.03 296.139 130.673 295.955 129.608C296.012 126.985 296.361 124.504 296.888 121.935C296.962 121.554 297.036 121.172 297.112 120.779C297.661 118.004 297.661 118.004 298.131 117.065C297.193 117.065 296.256 117.065 295.29 117.065C296.051 115.493 296.051 115.493 296.507 115.036C297.184 115.019 297.86 115.019 298.537 115.036C298.528 114.617 298.52 114.199 298.511 113.768C298.663 112.623 298.875 112.257 299.74 111.464C302.249 109.76 302.249 109.76 303.812 109.76Z" fill="black"/>
<path d="M249.025 109.76C248.968 110.487 248.908 111.214 248.847 111.941C248.814 112.346 248.782 112.751 248.748 113.168C248.619 114.224 248.619 114.224 248.213 115.036C249.285 115.036 250.356 115.036 251.46 115.036C251.46 115.706 251.46 116.375 251.46 117.065C250.255 117.065 249.049 117.065 247.807 117.065C247.766 117.525 247.724 117.986 247.681 118.46C247.344 121.536 246.739 124.575 246.184 127.617C247.541 127.323 248.352 126.879 249.431 125.993C249.234 127.729 248.798 128.423 247.452 129.519C247.169 129.755 246.885 129.991 246.593 130.234C245.156 131.344 244.364 131.904 242.532 131.675C241.678 131.03 241.351 130.673 241.168 129.608C241.225 126.985 241.574 124.504 242.1 121.935C242.174 121.554 242.249 121.172 242.325 120.779C242.874 118.004 242.874 118.004 243.343 117.065C242.406 117.065 241.468 117.065 240.502 117.065C241.263 115.493 241.263 115.493 241.72 115.036C242.396 115.019 243.073 115.019 243.749 115.036C243.741 114.617 243.732 114.199 243.724 113.768C243.875 112.623 244.087 112.257 244.952 111.464C247.462 109.76 247.462 109.76 249.025 109.76Z" fill="black"/>
<path d="M237.738 114.681C238.473 115.442 238.473 115.442 238.651 116.685C238.473 117.877 238.473 117.877 237.662 118.689C236.723 118.891 236.723 118.891 235.632 118.689C234.956 117.877 234.28 117.065 233.603 116.254C232.502 116.049 232.502 116.049 231.574 116.254C231.54 117.908 231.614 118.709 232.777 119.935C233.417 120.48 234.067 121.013 234.729 121.533C236.219 122.866 236.791 123.968 237.078 125.943C237.006 127.674 236.322 128.638 235.135 129.858C233.595 131.141 232.122 131.617 230.154 131.827C228.517 131.652 226.7 131.265 225.487 130.052C225.367 128.541 225.426 128.113 226.298 126.805C227.876 126.898 228.528 127.342 229.545 128.479C230.129 129.145 230.129 129.145 230.762 129.646C231.904 129.663 231.904 129.663 232.792 129.24C232.956 128.311 232.956 128.311 232.792 127.211C231.949 126.153 231.949 126.153 230.838 125.182C228.945 123.433 227.666 122.157 227.287 119.551C227.353 117.816 228.086 116.883 229.22 115.623C231.605 113.708 234.949 113.697 237.738 114.681Z" fill="black"/>
<path d="M292.043 114.224C293.083 114.656 293.083 114.656 293.667 115.442C293.819 116.888 293.819 116.888 293.667 118.283C292.855 119.094 292.855 119.094 291.891 119.272C290.826 119.094 290.826 119.094 289.887 118.131C289.202 117.065 289.202 117.065 289.202 116.254C288.195 116.39 288.195 116.39 287.173 117.065C286.596 118.239 286.273 119.453 285.956 120.718C285.864 121.044 285.772 121.371 285.677 121.707C285.275 124.738 285.275 124.738 285.956 127.617C287.332 128.128 287.883 128.066 289.253 127.49C290.062 127.015 290.857 126.514 291.637 125.994C291.452 127.855 290.857 128.591 289.431 129.773C287.612 131.149 286.29 131.705 284.009 131.515C282.612 131.131 281.929 130.383 281.086 129.24C280.147 127.362 280.461 124.644 280.867 122.63C282.009 119.258 284.482 116.376 287.538 114.584C289.012 113.962 290.473 114.046 292.043 114.224Z" fill="black"/>
<path d="M275.81 114.224C276.571 114.858 276.571 114.858 277.028 115.848C277.133 117.922 276.876 119.838 276.444 121.859C276.389 122.13 276.335 122.401 276.278 122.679C275.869 124.657 275.869 124.657 275.404 125.588C275.388 126.399 275.387 127.211 275.404 128.023C276.603 127.466 277.612 126.81 278.651 125.994C278.454 127.729 278.018 128.423 276.672 129.519C276.389 129.755 276.105 129.991 275.813 130.234C274.376 131.344 273.584 131.904 271.752 131.675C270.904 131.033 270.572 130.675 270.387 129.617C270.444 126.909 270.821 124.336 271.346 121.682C271.423 121.274 271.501 120.866 271.58 120.447C271.77 119.454 271.962 118.462 272.158 117.471C271.057 118.126 269.977 118.79 268.911 119.5C268.777 119.232 268.643 118.964 268.505 118.689C272.589 113.734 272.589 113.734 275.81 114.224Z" fill="black"/>
<path d="M221.428 114.224C222.189 114.858 222.189 114.858 222.646 115.848C222.751 117.922 222.495 119.838 222.062 121.859C222.008 122.13 221.953 122.401 221.897 122.679C221.488 124.657 221.488 124.657 221.022 125.588C221.006 126.399 221.005 127.211 221.022 128.023C222.221 127.466 223.23 126.81 224.269 125.994C224.072 127.729 223.636 128.423 222.291 129.519C222.007 129.755 221.724 129.991 221.431 130.234C219.994 131.344 219.202 131.904 217.37 131.675C216.522 131.033 216.191 130.675 216.005 129.617C216.063 126.909 216.44 124.336 216.964 121.682C217.042 121.274 217.119 120.866 217.199 120.447C217.388 119.454 217.58 118.462 217.776 117.471C216.675 118.126 215.595 118.79 214.529 119.5C214.395 119.232 214.261 118.964 214.123 118.689C218.207 113.734 218.207 113.734 221.428 114.224Z" fill="black"/>
<path d="M240.097 174.288C242.12 175.757 242.796 177.578 243.344 179.97C243.678 183.053 243.971 186.805 242.229 189.5C242.061 189.703 241.893 189.906 241.72 190.115C241.548 190.327 241.376 190.538 241.199 190.756C240.059 191.911 239.028 192.291 237.459 192.373C235.643 192.257 234.565 191.762 233.198 190.521C230.921 187.442 230.924 184.067 231.169 180.375C231.61 178.155 232.36 176.294 234.009 174.694C235.851 173.502 238.059 173.678 240.097 174.288ZM234.821 176.317C233.059 179.537 233.015 183.852 233.941 187.322C234.493 188.749 234.951 189.84 236.039 190.927C237.221 191.164 237.221 191.164 238.474 190.927C240.52 188.938 241.019 186.866 241.059 184.108C241.06 183.772 241.06 183.436 241.061 183.089C241.071 182.758 241.081 182.427 241.091 182.085C241.102 179.688 240.61 177.922 239.285 175.911C238.522 174.978 238.522 174.978 237.281 174.973C235.873 175.116 235.687 175.267 234.821 176.317Z" fill="#F8E7DF"/>
<path d="M160.858 173.248C161.457 173.31 161.457 173.31 162.069 173.373C162.372 173.407 162.676 173.441 162.988 173.476C163.039 176.571 163.039 176.571 162.582 177.94C162.315 177.94 162.047 177.94 161.771 177.94C161.582 177.25 161.582 177.25 161.39 176.545C161.11 175.186 161.11 175.186 160.553 174.694C158.443 174.504 158.443 174.504 156.495 175.125C155.84 176.394 155.92 177.35 156.089 178.752C157.146 180.59 158.86 181.717 160.544 182.953C161.553 183.775 162.114 184.457 162.327 185.76C162.409 188.893 162.409 188.893 161.34 190.293C159.62 191.793 158.156 192.459 155.886 192.702C154.221 192.524 153.121 192.066 151.625 191.333C151.491 189.86 151.357 188.386 151.219 186.869C151.621 186.869 152.023 186.869 152.437 186.869C152.51 187.094 152.584 187.319 152.66 187.55C152.762 187.844 152.864 188.138 152.969 188.441C153.068 188.733 153.167 189.025 153.269 189.326C153.639 190.253 153.639 190.253 154.872 190.927C156.429 191.097 157.352 191.149 158.702 190.318C159.409 189.187 159.688 188.274 159.628 186.93C159.004 185.064 157.19 183.973 155.683 182.81C154.309 181.665 153.566 180.931 153.248 179.183C153.145 177.522 153.494 176.478 154.466 175.099C156.668 173.366 158.114 172.954 160.858 173.248Z" fill="#F6E2DC"/>
<path d="M223.052 173.882C224.712 174.616 225.77 175.572 226.704 177.129C227.042 179.153 226.882 180.313 225.791 182.049C223.836 184.736 221.591 187.216 219.399 189.709C220.389 189.764 221.376 189.804 222.367 189.836C222.787 189.862 222.787 189.862 223.216 189.888C224.145 189.932 224.145 189.932 225.487 189.709C226.261 188.73 226.261 188.73 226.704 187.68C226.972 187.68 227.24 187.68 227.516 187.68C227.283 189.346 226.937 190.548 226.298 192.144C222.95 192.144 219.602 192.144 216.152 192.144C216.931 190.587 217.732 189.569 218.866 188.264C222.486 184.294 222.486 184.294 224.117 179.386C223.849 177.566 223.849 177.566 222.646 176.317C220.686 176.064 219.864 175.994 218.232 177.129C217.948 177.396 217.663 177.664 217.37 177.94C217.102 177.94 216.834 177.94 216.558 177.94C217.107 176.143 217.87 175.358 219.399 174.288C220.643 173.666 221.679 173.789 223.052 173.882Z" fill="#F7E5DE"/>
<path d="M175.975 179.969C176.381 180.375 176.381 180.375 176.42 181.214C176.416 181.548 176.411 181.882 176.406 182.227C176.403 182.562 176.399 182.897 176.395 183.243C176.39 183.502 176.386 183.761 176.381 184.028C176.674 183.69 176.674 183.69 176.974 183.346C177.23 183.052 177.486 182.758 177.751 182.455C178.005 182.163 178.259 181.871 178.521 181.57C179.937 179.975 179.937 179.975 181.276 179.893C182.468 179.969 182.468 179.969 182.874 180.375C183.273 183.822 182.405 187.182 181.657 190.521C181.908 190.32 182.159 190.119 182.418 189.912C183.28 189.303 183.28 189.303 184.092 189.303C183.528 190.666 182.945 191.408 181.657 192.144C180.541 192.22 180.541 192.22 179.628 192.144C179.562 189.758 179.786 187.585 180.236 185.245C180.323 184.774 180.323 184.774 180.412 184.292C180.554 183.527 180.699 182.763 180.845 181.998C178.164 183.182 176.926 184.715 175.569 187.274C175.034 188.879 174.652 190.48 174.352 192.144C173.682 192.144 173.012 192.144 172.323 192.144C172.992 188.528 173.662 184.912 174.352 181.187C173.146 181.99 173.146 181.99 171.917 182.81C172.854 180.719 173.558 179.715 175.975 179.969Z" fill="#FAEAE1"/>
<path d="M204.789 179.97C205.144 181.01 205.144 181.01 205.195 182.405C203.976 184.611 202.27 185.723 199.919 186.463C199.383 186.463 198.848 186.463 198.296 186.463C198.43 188.498 198.43 188.498 199.513 190.115C201.037 189.983 202.247 189.662 203.572 188.898C202.96 190.455 202.158 191.276 200.731 192.145C199.503 192.406 198.773 192.332 197.484 192.145C196.252 190.989 196.171 189.782 196.089 188.162C196.199 185.192 197.302 183.263 199.386 181.187C201.129 179.74 202.599 179.65 204.789 179.97Z" fill="#F3DBD7"/>
<path d="M254.301 173.882C254.435 179.507 254.569 185.132 254.707 190.927C255.242 191.061 255.778 191.195 256.33 191.333C256.33 191.601 256.33 191.868 256.33 192.144C254.187 192.144 252.044 192.144 249.837 192.144C249.837 191.876 249.837 191.609 249.837 191.333C250.506 191.333 251.176 191.333 251.866 191.333C251.866 186.377 251.866 181.422 251.866 176.317C251.062 176.451 250.259 176.585 249.431 176.723C249.837 175.505 249.837 175.505 250.647 175.031C250.974 174.895 251.301 174.758 251.638 174.617C251.963 174.478 252.289 174.338 252.625 174.194C253.489 173.882 253.489 173.882 254.301 173.882Z" fill="#F7E4DD"/>
<path d="M266.882 174.693C269.46 174.837 269.46 174.837 270.483 175.86C271.302 177.406 271.422 178.673 271.447 180.401C271.458 180.832 271.468 181.264 271.479 181.708C271.435 182.072 271.391 182.436 271.346 182.81C270.041 183.68 269.222 183.813 267.668 183.782C266.882 183.622 266.882 183.622 265.892 182.658C264.861 180.926 264.568 179.548 264.852 177.534C265.46 176.456 266.008 175.567 266.882 174.693Z" fill="black"/>
<path d="M194.643 179.969C195.049 180.375 195.049 180.375 195.074 181.415C195.066 181.741 195.058 182.068 195.049 182.404C193.071 182.049 193.071 182.049 192.614 181.593C191.634 181.423 191.634 181.423 190.585 181.593C188.989 183.129 188.513 185.196 188.454 187.35C188.428 188.926 188.428 188.926 189.367 190.115C190.877 189.909 192.1 189.662 193.426 188.898C192.816 190.45 191.997 191.265 190.585 192.144C189.03 192.362 188.142 192.359 186.755 191.612C185.714 189.822 185.852 188.071 186.121 186.057C187.223 182.09 190.433 179.159 194.643 179.969Z" fill="#F6E1DB"/>
<path d="M169.076 179.969C169.168 182.47 168.849 184.644 168.264 187.071C168.187 187.405 168.109 187.739 168.03 188.083C167.84 188.896 167.647 189.709 167.452 190.521C168.256 190.119 169.06 189.717 169.887 189.303C169.324 190.666 168.741 191.408 167.452 192.144C166.336 192.22 166.336 192.22 165.423 192.144C165.319 189.745 165.709 187.606 166.235 185.27C166.312 184.915 166.39 184.561 166.47 184.195C166.659 183.327 166.852 182.459 167.047 181.593C166.243 181.994 165.44 182.396 164.612 182.81C165.675 180.439 166.407 179.791 169.076 179.969Z" fill="#F9EAE1"/>
<path d="M199.513 181.593C199.647 181.861 199.781 182.128 199.919 182.404C199.604 183.283 199.604 183.283 199.133 184.281C198.979 184.613 198.824 184.945 198.665 185.286C198.482 185.668 198.482 185.668 198.296 186.057C198.698 186.191 199.099 186.325 199.513 186.463C199.112 186.463 198.71 186.463 198.296 186.463C198.43 188.498 198.43 188.498 199.513 190.115C201.037 189.983 202.247 189.662 203.572 188.898C202.96 190.455 202.158 191.276 200.731 192.144C199.503 192.406 198.773 192.331 197.484 192.144C196.252 190.989 196.171 189.781 196.089 188.162C196.154 186.089 196.689 184.502 197.89 182.81C198.803 181.998 198.803 181.998 199.513 181.593Z" fill="#F8E7DF"/>
<path d="M226.704 187.68C226.972 187.68 227.24 187.68 227.516 187.68C227.283 189.346 226.937 190.548 226.298 192.144C222.95 192.144 219.602 192.144 216.152 192.144C216.558 190.927 216.558 190.927 217.379 190.239C219.251 189.418 221.022 189.683 223.026 189.828C224.04 189.89 224.04 189.89 225.487 189.709C226.282 188.739 226.282 188.739 226.704 187.68Z" fill="#FBEFE4"/>
<path d="M277.433 105.296C278.245 106.108 278.245 106.108 278.397 107.477C278.245 108.948 278.245 108.948 277.586 109.938C276.352 110.749 275.636 110.792 274.187 110.572C273.242 109.155 273.171 108.586 273.375 106.919C274.512 105.258 275.472 105.04 277.433 105.296Z" fill="black"/>
<path d="M223.052 105.296C223.863 106.108 223.863 106.108 224.016 107.477C223.863 108.948 223.863 108.948 223.204 109.938C221.97 110.749 221.254 110.792 219.805 110.572C218.86 109.155 218.789 108.586 218.993 106.919C220.13 105.258 221.09 105.04 223.052 105.296Z" fill="black"/>
<path d="M168.264 115.848C168.8 115.848 169.336 115.848 169.887 115.848C170.227 118.562 170.227 118.562 169.298 120.019C167.4 122.223 167.4 122.223 165.829 122.747C166.055 120.178 166.359 117.753 168.264 115.848Z" fill="white"/>
<path d="M201.847 181.06C202.299 181.123 202.299 181.123 202.76 181.187C203.09 181.872 203.09 181.872 203.166 182.81C202.167 183.975 201.196 184.8 199.919 185.651C199.517 185.651 199.116 185.651 198.702 185.651C198.903 183.488 199.402 181.338 201.847 181.06Z" fill="black"/>
<path d="M167.452 173.882C168.122 173.882 168.792 173.882 169.482 173.882C169.482 174.551 169.482 175.221 169.482 175.911C168.812 176.045 168.142 176.179 167.452 176.317C166.996 174.795 166.996 174.795 167.452 173.882Z" fill="#F8E6DE"/>
<path d="M221.022 186.463C221.022 188.223 220.178 188.875 218.993 190.115C218.592 190.115 218.19 190.115 217.776 190.115C218.418 188.381 219.604 187.572 221.022 186.463Z" fill="#F1D6D4"/>
<path d="M218.588 174.693C218.855 174.827 219.123 174.961 219.399 175.099C217.928 177.484 217.928 177.484 216.558 177.94C217.04 176.57 217.482 175.648 218.588 174.693Z" fill="#EFD3D1"/>
<path d="M265.664 190.115C265.932 190.249 266.2 190.383 266.476 190.521C266.476 190.789 266.476 191.057 266.476 191.333C265.223 192.049 264.758 192.144 263.229 192.144C263.229 191.877 263.229 191.609 263.229 191.333C264.026 190.899 264.84 190.494 265.664 190.115Z" fill="#F2D9D5"/>
</svg>
