<?xml version="1.0" encoding="UTF-8"?>
<svg id="Calque_1" xmlns="http://www.w3.org/2000/svg" viewBox="0 0 1199.39 1198.41">
  <defs>
    <style>
      .cls-1 {
        fill: #fff;
      }
    </style>
  </defs>
  <path d="M0,1198.41V0h1199.39v1198.41H0ZM959.41,682.86v-179.29H240.11v179.29h719.3ZM155.12,678.32c-25.45,26.29-50.7,52.37-76.5,79.02h250.47c0-1.92,0-3.55,0-5.18,0-14.32.01-28.64,0-42.95,0-6.82-.61-7.42-7.41-7.43-31.83,0-63.66,0-95.49,0-1.75,0-3.49,0-5.69,0v-104.98H76.22c26.71,27.6,52.7,54.46,78.9,81.53ZM1044.4,678.31c26.2-27.08,52.18-53.93,78.83-81.46h-144.63v104.93h-5.91c-31.66,0-63.32,0-94.99,0-6.56,0-7.23.65-7.25,7.09-.03,14.65-.02,29.3,0,43.96,0,1.45.2,2.89.32,4.51h250.09c-25.91-26.77-51.1-52.8-76.47-79.01ZM330.98,479.21c12.81,2.9,14.62,2.08,20.32-8.55.16-.29.3-.59.46-.89,58.48-111.15,185-170.17,307.5-142.34,84.83,19.28,147.43,68.46,188.63,144.98,4.34,8.06,10.36,10.31,18.69,6.77-37.36-89.43-139.62-177.33-277.01-172.69-62.74,2.12-119.63,21.32-169.38,60.1-38.72,30.18-69.31,66.9-89.2,112.61ZM775.78,829.39c-114.18,87.03-230.96,93.16-352.53,17.41-2.18,2.96-4.83,6.53-7.46,10.11,117.24,88.58,282.95,66.14,370.02-20.06-3.61-2.69-7.2-5.35-10.03-7.45ZM367.97,479.3c8.48,2.07,9.45,1.74,13.68-5.39,12.49-21.04,26.97-40.62,45.38-56.76,78.73-69.05,167.88-87.06,266.25-50.66,53.9,19.95,95.23,56.49,124.71,106.05,5.08,8.53,6.49,9.2,14.54,6.45-16.83-33.74-40.56-61.63-70.06-84.7-46.02-35.98-98.49-54.23-156.73-55.79-110.93-2.98-201.82,65.62-237.78,140.79ZM762.76,811.3c-3.73-4.62-6.81-4.98-11.68-1.26-20.03,15.32-41.58,28.22-64.75,38.31-37.63,16.4-76.82,23.75-117.85,20.12-36.67-3.25-70.97-14.49-103.57-31.26-7.93-4.08-15.75-8.38-23.78-12.67-1.63,2.28-3.05,4.27-4.46,6.25,97.21,72.26,243.06,60.85,326.09-19.49ZM616.35,437.86c-4.99-14.46-2.15-25.65,11.48-33.86-15.72.48-25.26-6.3-29.42-21.43-3.91,15.58-13.95,21.64-28.94,21.28,3.71,4.18,7.55,7.16,10.52,10.84,1.75,2.17,3.01,5.45,2.95,8.2-.1,4.75-1.39,9.47-2.51,16.15,12.2-10.7,23.74-10.85,35.92-1.19ZM502.5,420.95c-2.52,5.02-4.76,9.06-6.58,13.27-1.54,3.58-3.81,5.51-7.81,5.85-4.18.36-8.32,1.3-13.4,2.14,3.41,3.78,5.96,7.05,8.96,9.84,3.3,3.08,4.19,6.45,3.19,10.77-.97,4.16-1.45,8.44-2.32,13.69,4.98-2.55,9.21-4.43,13.15-6.81,3.41-2.06,6.37-1.98,9.74,0,3.91,2.29,8.03,4.21,12.9,6.72-.69-4.91-.92-8.74-1.81-12.4-1.34-5.52.27-9.63,4.57-13.18,2.93-2.42,5.44-5.34,8.62-8.51-5.51-.88-9.91-1.9-14.36-2.21-4.24-.29-6.61-2.34-8.27-6.01-1.89-4.19-4.1-8.23-6.57-13.15ZM694.5,420.92c-2.59,5.21-4.85,9.45-6.82,13.81-1.44,3.2-3.59,4.91-7.16,5.28-4.36.45-8.67,1.35-13.93,2.2,3.7,4.02,7.13,7.02,9.57,10.67,1.66,2.49,2.68,5.92,2.63,8.9-.08,4.58-1.33,9.13-2.14,13.97,6.3-2.57,12.07-6.75,17.87-6.78,5.75-.03,11.52,4.1,17.66,6.57-.55-3.96-.78-7.78-1.65-11.46-1.31-5.5.19-9.66,4.53-13.23,2.94-2.41,5.45-5.34,8.65-8.54-5.54-.89-9.95-1.92-14.41-2.22-4.27-.28-6.6-2.41-8.25-6.06-1.9-4.19-4.1-8.24-6.55-13.12ZM677.96,755.84c-1.88-5.71-2.93-11.37-5.51-16.22-5.2-9.79-17.22-9.56-22.9,0-6.45,10.86-6.16,21.64.35,32.31,5.5,9.02,17.29,9.17,22.33-.08,2.63-4.82,3.79-10.44,5.73-16.02ZM475.62,744.11c3.36-6.65,3.2-10.39-.06-12.26-5.45-3.11-15.49-.26-19.72,5.6-3.93,5.45-3.08,11.2,2.55,16.39,2.93,2.7,6.63,4.84,8.79,8.04,1.6,2.38,2.42,6.51,1.44,9.02-.88,2.26-4.75,4.74-7.18,4.63-2.69-.12-5.54-2.78-7.76-4.92-1.37-1.32-1.7-3.72-2.61-5.9-4.19,6.84-2.06,13.09,4.94,13.62,4.56.35,9.83-.4,13.82-2.5,8.57-4.5,9.24-13.64,2.17-20.27-2.06-1.93-4.65-3.3-6.6-5.31-1.78-1.85-3.63-4.03-4.38-6.41-1.53-4.83.73-7.89,5.75-9.14,4.75-1.19,6.85.95,7.43,5.44.14,1.1.76,2.14,1.43,3.96ZM742.72,759.8c-2.81,9.31-10.84,12.83-17.68,17.77,1.62.27,3.09.29,4.37-.19,7.36-2.75,13.59-7.12,17.84-13.8,4.68-7.36,5.48-15.3,1.86-23.32-3.16-7.02-10.12-9.78-16.99-7.17-6.91,2.62-10.96,10.64-9.07,17.94,1.93,7.47,7.59,10.94,15.55,9.55,1.27-.22,2.54-.48,4.12-.78ZM609.71,744.07c1.64-1.32,2.14-1.73,2.64-2.13,4.07-3.21,9.85-4.27,12.42-2.27,3.26,2.54,4.34,7.68,1.55,12.82-2.83,5.21-6.57,9.95-10.08,14.77-2.49,3.42-5.27,6.64-8.55,10.73,8.44,0,15.71.5,22.88-.17,5-.46,6.9-5.57,4.74-10.38-4.7,5.95-8.83,6.86-17.17,3.62,1.3-1.61,2.58-3.12,3.77-4.69,3.8-5.04,7.84-9.92,11.25-15.21,2.85-4.41,2.52-9.23-.59-13.59-3.18-4.47-7.76-5.68-12.83-4.53-5.06,1.15-8.29,4.47-10.03,11.01ZM512.2,755.24c-1.46-2.63-2.78-5-4.1-7.38-3.07,1.72-6.14,3.45-9.21,5.17.27.51.54,1.02.82,1.53,1.57-.54,3.15-1.08,5.04-1.74,0,1.17.15,2.13-.02,3.03-1.13,6.04-2.47,12.05-3.41,18.12-.22,1.38.84,2.97,1.3,4.46,1.39-1.09,3.2-1.93,4.05-3.35.89-1.48.76-3.54,1.26-5.29,2.06-7.19,5.3-13.47,13.78-17.03-1.16,7.63-2.2,14.31-3.2,21.01-.36,2.43-.47,5.55,3.02,4.39,3.26-1.09,5.99-3.76,8.95-5.73-.31-.46-.62-.92-.93-1.38-1.54.59-3.07,1.18-5.19,2,.27-2.36.43-4.15.69-5.93.66-4.43,1.66-8.84,1.91-13.29.11-1.88-.81-4.8-2.18-5.52-1.45-.76-4.33,0-5.95,1.05-2.71,1.77-4.91,4.31-6.62,5.88ZM696.77,739.68c0,8.8-.17,17.43.07,26.04.13,4.62-.01,8.89-5.48,12.07h13.8c-.71-3.84-1.71-7.47-1.98-11.15-.34-4.63-.08-9.3-.08-13.96,0-6.57,0-13.13,0-20.7-5.02,2.47-9.08,4.47-13.13,6.46.18.41.37.82.55,1.23h6.25ZM576.51,770.23c-1.34.83-2.43,1.47-3.48,2.18-2.83,1.92-5.38,2.03-6.95-1.45-1.4-3.09-1.22-5.61,2.6-7.22,3.18-1.34,6.1-3.36,9-5.28,3.06-2.03,5.01-5.16,3.15-8.51-1.96-3.53-5.76-2.68-8.95-1.47-7.63,2.9-13.71,13.07-12.8,21.36.45,4.12,1.5,8.07,6.56,8.74,4.85.64,9.33-2.75,10.87-8.36ZM553.44,771.39c-.35-.55-.71-1.1-1.06-1.64-1.25.73-2.42,1.7-3.76,2.15-1.9.63-4.5,1.79-5.76,1.02-1.35-.82-2.28-3.73-2.03-5.53.61-4.38,1.74-8.75,3.19-12.94,1.24-3.58,3.66-4.95,7.31-2.22,1.24.93,3.09,1.03,4.95,1.59-.5-6.12-2.9-7.55-8.4-5.79-8.52,2.72-15.42,14.82-13.51,23.68,1.43,6.6,6.67,8.82,12.28,5.06,2.39-1.6,4.54-3.56,6.79-5.36ZM487.57,752.06c-1.39,7.32-2.77,13.61-3.68,19.96-.28,1.96.73,4.11,1.15,6.17,2.23-.81,4.6-1.37,6.63-2.53,1.06-.6,1.52-2.24,2.66-4.06-2.14.74-3.38,1.17-5.08,1.76.37-2.24.6-3.87.9-5.48.98-5.22,2.24-10.4,2.82-15.66.17-1.55-1.21-4.24-2.53-4.78-2.3-.93-7.67,4.1-8.45,7.47,1.6-.82,3.03-1.55,5.58-2.86ZM496.21,734.45c-4.21-3.17-6.42-1.48-8.6,2.51.93.98,1.9,1.99,3.3,3.45,2.14-2.41,3.67-4.12,5.31-5.96Z"/>
  <path class="cls-1" d="M959.41,682.86H240.11v-179.29h719.3v179.29ZM534.1,626.53c.35.47.7.94,1.06,1.41,9.91,0,19.83.32,29.73-.07,19.95-.79,33.08-13.02,35.8-32.84,1.73-12.62-4.55-24.6-15.79-26.44-11.55-1.89-23.48-1.53-35.25-2.04-.72-.03-1.48.95-2.21,1.46.46.6.81,1.59,1.39,1.75,3.72,1.04,3.17,3.74,2.66,6.42-2.1,10.94-4.11,21.9-6.39,32.8-1.47,7-.38,15.58-10.99,17.55ZM430.67,566.72c5.35,2.19,5.62,5.55,4.42,10.1-1.36,5.13-2.07,10.43-3.04,15.66-2.15,11.55-4.29,23.11-6.42,34.6,8.27,2.57,9.19,1.99,11.67-5.37,2.01-5.98,4.1-11.97,6.74-17.68,1.4-3.02,4.06-5.46,6.15-8.16.51.28,1.02.55,1.53.83-.19,2.59-.2,5.2-.6,7.76-.85,5.42-2.11,10.78-2.79,16.22-.39,3.2.07,6.51,4.2,7.34,4.83.97,14.37-6.46,15.16-12.1-2.55,1.72-4.88,3.3-8.13,5.5.35-4.08.5-7.02.87-9.94.74-5.76,2.15-11.51,2.16-17.26,0-2.63-2.07-6.37-4.29-7.52-1.6-.83-5.38,1.3-7.48,2.99-3.14,2.53-5.67,5.82-9.21,9.6,2.31-12.66,4.39-24.14,6.6-36.24-6.54,1.36-12.04,2.51-17.53,3.66ZM395.53,571.29c-.17,1.4-.24,2.54-.45,3.64-2.43,12.57-4.9,25.13-7.31,37.7-1.07,5.56-.87,11.8-7.98,14h23.61c-4.44-1.96-5.45-4.85-4.51-9.34,2.91-13.83,5.44-27.73,8.19-41.59,1.02-5.15,4.91-7.51,9.51-4.99,2.6,1.42,4.33,4.61,6.18,7.2.91,1.28,1.21,3,1.79,4.53.49-.09.98-.17,1.47-.26.46-5.02.92-10.03,1.44-15.75-2.29,0-4.07,0-5.84,0-12.31,0-24.63,0-36.94,0-6.76,0-12.65,9.63-9.85,16.76,4.86-7.53,9.27-15.75,20.69-11.9ZM483.56,612c3.06-1.36,5.88-2.37,8.45-3.82,4-2.26,8.52-4.21,11.5-7.49,1.91-2.1,2.71-6.84,1.67-9.48-.9-2.27-5-4.22-7.87-4.51-3.22-.33-7,.71-9.92,2.29-9.58,5.19-16.1,18.92-14.66,29.71.71,5.31,4.11,9.16,8.57,9.7,4.65.57,16.76-6.62,18.47-11.02.15-.38-.14-.92-.24-1.48-3.24,1.73-6.29,4.57-9.52,4.8-4.91.36-5.34-4.48-6.44-8.71ZM706.1,593.97c.41.29.81.57,1.22.86-1.87,10.86-3.74,21.73-5.6,32.55,8.83,1.97,9.22,1.57,11.97-6.28,2.47-7.06,5.34-13.98,8.22-20.89,1.57-3.76,4.1-5.22,8.4-3.45,1.69.69,5.12.24,6.01-.97,1.23-1.68,1.65-4.95.81-6.81-.61-1.35-3.93-2.24-5.88-1.99-2.09.26-4.22,1.82-5.89,3.31-2.43,2.17-4.47,4.78-6.92,7.47,0-2.13.09-3.76-.02-5.37-.32-4.6-3.48-7.1-7.83-5.79-5.87,1.78-9.43,6.07-11.32,11.89,2.27-1.51,4.55-3.02,6.82-4.53ZM642.38,629.35c3.34-1.06,6.99-1.74,10.2-3.32,7.5-3.7,9.29-11.03,4.58-17.98-1.38-2.04-3.28-3.74-5.01-5.54-1.5-1.56-3.7-2.78-4.47-4.62-.82-1.95-.31-4.46-.39-6.72,2.07.49,4.2.82,6.18,1.56.8.3,1.22,2.12,1.88,2.16,2.57.15,5.17-.13,7.76-.25-.24-1.94.24-4.94-.82-5.65-9.12-6.17-21.05-2.56-24.58,6.15-2.29,5.67.12,10.02,3.8,14.02,2.48,2.69,5.63,4.95,7.4,8.02,1.01,1.75-.16,4.76-.35,7.2-2.01-.61-4.13-1.01-5.99-1.93-1.1-.55-1.61-2.21-2.7-2.87-1.45-.88-3.59-2.17-4.71-1.67-1.5.68-2.98,2.81-3.19,4.48-.17,1.35,1.21,3.54,2.52,4.29,2.22,1.28,4.93,1.73,7.87,2.67ZM823.05,587.8c.54-4.23,1.08-8.42,1.84-14.28-4.21,2.7-7.66,4.12-10.01,6.59-3.39,3.57-5.99,7.89-8.95,11.92.81.21,2.61.68,4.77,1.25-.27,1.76-.47,3.37-.76,4.97-1.28,7.02-2.72,14.02-3.83,21.07-.52,3.3-.62,7.02,3.33,8.4,5.28,1.85,14.92-5.11,15.61-11.17-2.22,1.28-4.31,2.49-7.22,4.17-.14-2.56-.53-4.33-.26-5.99.83-5.25,2.01-10.44,2.85-15.68.68-4.3,2.37-7.19,7.32-7.03.95.03,1.92-.92,2.88-1.41,0-.38-.02-.75-.02-1.13-2.29-.51-4.59-1.01-7.56-1.67ZM675.67,593.26c-.18,1.43-.29,2.58-.48,3.71-1.38,8.03-3.03,16.02-4.02,24.09-.28,2.24.72,5.56,2.34,6.83,1.28,1,4.77.21,6.67-.87,3.13-1.79,5.87-4.34,8.57-6.79,1.05-.96,1.55-2.52,2.3-3.81-.27-.2-.53-.39-.8-.59-2.32,1.72-4.65,3.44-7.83,5.79,0-2.64-.24-4.43.04-6.14.94-5.74,2.11-11.44,3.11-17.17.68-3.91,2.39-6.46,6.89-6.25,1.02.05,2.09-.88,3.14-1.36-.06-.39-.12-.78-.18-1.18-2.42-.59-4.85-1.19-7.29-1.79.48-4.43.92-8.57,1.37-12.71-.4-.25-.8-.51-1.2-.76-2.8,1.9-6.1,3.35-8.27,5.8-3.2,3.6-5.59,7.92-8.38,12.01.8.23,2.18.64,4.03,1.18ZM786.15,591.4c1.24,1.08,2.2,2,3.25,2.81,1.18.91,2.43,1.75,3.68,2.58,2.8,1.86,4.67.74,5.99-1.95,1.56-3.17-.42-7.4-4.4-7.83-3.5-.38-7.49-.19-10.65,1.16-10.5,4.49-18.16,19.37-16.43,30.7.83,5.43,4.85,9.3,9.95,9.57,5.31.28,15.3-6.58,17.19-11.85.05-.13-.36-.42-.43-.5-2.25,1.18-4.41,2.38-6.63,3.47-4.25,2.08-6.61,0-8.04-3.83-2.03-5.44,1.75-19.91,6.52-24.32ZM620.06,622.04c.24-3.68.18-5.8.54-7.85,1.19-6.71,2.78-13.36,3.74-20.11.81-5.69-2.93-9.02-8.08-7.28-5.54,1.87-9.42,5.7-11.8,12.11,3.09-1.96,5.34-3.38,8.58-5.43-.39,4.06-.51,6.86-.96,9.6-.99,6.07-2.32,12.09-3.18,18.17-.46,3.24-.02,6.58,4.05,7.44,4.77,1.01,14.75-7.31,15.15-12.77-2.37,1.81-4.56,3.48-8.03,6.13ZM754.49,621.8c0-3.2-.29-5.31.05-7.31,1.19-6.88,2.75-13.69,3.89-20.58.8-4.83-2.15-7.86-6.79-7.44-5.18.46-11.31,6.36-12.35,11.88,2.26-1.43,4.53-2.86,6.79-4.29.4.24.79.49,1.19.73-1.19,7.15-2.63,14.26-3.47,21.45-.47,4-3.38,9.06,1.69,11.83,5.05,2.76,8.2-2.04,11.57-4.65,2.36-1.83,4.17-4.36,6.23-6.57l-1.18-1.08c-2.27,1.8-4.54,3.59-7.63,6.04ZM627.88,569.75c.07-3.6-1.92-5.76-5.34-5.79-3.65-.02-6.66,3.14-6.75,7.22-.07,3.41,1.1,5.84,5.04,5.93,4.05.09,6.97-2.93,7.05-7.36ZM756.51,564.11c-4.06.03-6.84,3.18-6.73,7.62.08,3.3,1.48,5.34,5.07,5.38,4.08.04,7.05-3.01,7.03-7.35-.02-3.54-1.58-5.67-5.37-5.64Z"/>
  <path class="cls-1" d="M155.12,678.32c-26.2-27.07-52.19-53.93-78.9-81.53h144.28v104.98c2.19,0,3.94,0,5.69,0,31.83,0,63.66,0,95.49,0,6.8,0,7.4.6,7.41,7.43.02,14.32,0,28.64,0,42.95,0,1.63,0,3.26,0,5.18H78.63c25.79-26.64,51.04-52.73,76.5-79.02Z"/>
  <path class="cls-1" d="M1044.4,678.31c25.37,26.22,50.56,52.24,76.47,79.01h-250.09c-.12-1.61-.32-3.06-.32-4.51-.02-14.65-.03-29.3,0-43.96.01-6.44.69-7.08,7.25-7.09,31.66-.01,63.32,0,94.99,0h5.91v-104.93h144.63c-26.64,27.53-52.63,54.39-78.83,81.46Z"/>
  <path class="cls-1" d="M330.98,479.21c19.89-45.71,50.48-82.42,89.2-112.61,49.75-38.78,106.64-57.98,169.38-60.1,137.39-4.65,239.65,83.26,277.01,172.69-8.32,3.54-14.35,1.29-18.69-6.77-41.2-76.52-103.81-125.71-188.63-144.98-122.49-27.84-249.02,31.19-307.5,142.34-.16.29-.3.6-.46.89-5.7,10.63-7.51,11.45-20.32,8.55Z"/>
  <path class="cls-1" d="M775.78,829.39c2.83,2.1,6.41,4.77,10.03,7.45-87.07,86.2-252.79,108.64-370.02,20.06,2.64-3.57,5.28-7.15,7.46-10.11,121.57,75.75,238.35,69.62,352.53-17.41Z"/>
  <path class="cls-1" d="M367.97,479.3c35.96-75.17,126.85-143.78,237.78-140.79,58.25,1.57,110.71,19.81,156.73,55.79,29.5,23.07,53.23,50.95,70.06,84.7-8.05,2.75-9.46,2.08-14.54-6.45-29.49-49.57-70.82-86.11-124.71-106.05-98.37-36.41-187.52-18.39-266.25,50.66-18.41,16.14-32.89,35.73-45.38,56.76-4.23,7.13-5.2,7.46-13.68,5.39Z"/>
  <path class="cls-1" d="M762.76,811.3c-83.04,80.34-228.89,91.74-326.09,19.49,1.41-1.98,2.83-3.97,4.46-6.25,8.03,4.29,15.85,8.59,23.78,12.67,32.6,16.78,66.9,28.02,103.57,31.26,41.03,3.63,80.22-3.73,117.85-20.12,23.17-10.09,44.72-22.99,64.75-38.31,4.87-3.73,7.95-3.36,11.68,1.26Z"/>
  <path class="cls-1" d="M616.35,437.86c-12.18-9.66-23.72-9.51-35.92,1.19,1.12-6.68,2.41-11.4,2.51-16.15.06-2.75-1.2-6.04-2.95-8.2-2.97-3.68-6.81-6.66-10.52-10.84,14.99.36,25.03-5.7,28.94-21.28,4.16,15.12,13.7,21.91,29.42,21.43-13.62,8.2-16.46,19.4-11.48,33.86Z"/>
  <path class="cls-1" d="M502.5,420.95c2.48,4.92,4.68,8.96,6.57,13.15,1.66,3.67,4.03,5.72,8.27,6.01,4.45.31,8.85,1.33,14.36,2.21-3.18,3.17-5.69,6.09-8.62,8.51-4.3,3.55-5.92,7.66-4.57,13.18.89,3.66,1.12,7.49,1.81,12.4-4.87-2.51-8.99-4.43-12.9-6.72-3.37-1.97-6.33-2.05-9.74,0-3.93,2.38-8.17,4.26-13.15,6.81.87-5.25,1.35-9.53,2.32-13.69,1-4.32.11-7.69-3.19-10.77-3-2.79-5.55-6.06-8.96-9.84,5.08-.84,9.21-1.79,13.4-2.14,4-.34,6.27-2.27,7.81-5.85,1.82-4.22,4.06-8.25,6.58-13.27Z"/>
  <path class="cls-1" d="M694.5,420.92c2.45,4.88,4.65,8.94,6.55,13.12,1.66,3.65,3.98,5.78,8.25,6.06,4.46.3,8.87,1.33,14.41,2.22-3.2,3.2-5.71,6.13-8.65,8.54-4.34,3.57-5.83,7.73-4.53,13.23.87,3.67,1.1,7.5,1.65,11.46-6.15-2.46-11.92-6.6-17.66-6.57-5.8.04-11.57,4.21-17.87,6.78.8-4.84,2.05-9.4,2.14-13.97.05-2.99-.97-6.42-2.63-8.9-2.44-3.66-5.87-6.65-9.57-10.67,5.26-.85,9.58-1.75,13.93-2.2,3.57-.37,5.71-2.07,7.16-5.28,1.97-4.37,4.23-8.6,6.82-13.81Z"/>
  <path class="cls-1" d="M677.96,755.84c-1.93,5.57-3.1,11.19-5.73,16.02-5.04,9.25-16.83,9.1-22.33.08-6.51-10.67-6.8-21.46-.35-32.31,5.67-9.55,17.7-9.79,22.9,0,2.58,4.85,3.63,10.51,5.51,16.22ZM650.83,755.54c1.42,5.11,2.35,10.23,4.37,14.88.86,1.98,4.04,4.18,6.05,4.08,2.01-.1,4.72-2.58,5.67-4.67,4.15-9.19,4.39-18.76.39-28.04-.97-2.25-3.79-4.97-5.91-5.1-2.08-.13-5.37,2.3-6.33,4.42-2.02,4.45-2.85,9.44-4.24,14.45Z"/>
  <path class="cls-1" d="M475.62,744.11c-.68-1.82-1.29-2.86-1.43-3.96-.58-4.49-2.68-6.62-7.43-5.44-5.02,1.25-7.28,4.31-5.75,9.14.75,2.37,2.59,4.56,4.38,6.41,1.94,2.02,4.54,3.39,6.6,5.31,7.07,6.63,6.41,15.77-2.17,20.27-3.99,2.09-9.26,2.84-13.82,2.5-7-.53-9.14-6.79-4.94-13.62.91,2.18,1.24,4.59,2.61,5.9,2.22,2.14,5.07,4.8,7.76,4.92,2.43.11,6.3-2.37,7.18-4.63.98-2.51.15-6.64-1.44-9.02-2.15-3.2-5.85-5.34-8.79-8.04-5.62-5.19-6.48-10.94-2.55-16.39,4.23-5.86,14.27-8.72,19.72-5.6,3.27,1.87,3.42,5.61.06,12.26Z"/>
  <path class="cls-1" d="M742.72,759.8c-1.58.3-2.85.55-4.12.78-7.96,1.4-13.62-2.08-15.55-9.55-1.89-7.31,2.17-15.33,9.07-17.94,6.88-2.61,13.83.15,16.99,7.17,3.62,8.02,2.82,15.96-1.86,23.32-4.25,6.68-10.49,11.05-17.84,13.8-1.28.48-2.75.46-4.37.19,6.83-4.94,14.87-8.46,17.68-17.77ZM735.69,757.03c7.7.12,10.49-3.11,9.33-8.8-.46-2.26-1.19-4.47-1.92-6.67-1.13-3.39-2.55-6.93-6.86-6.63-4.03.28-6.18,3.52-6.54,7.1-.35,3.46-.18,7.31,1.07,10.47.89,2.26,3.94,3.68,4.93,4.53Z"/>
  <path class="cls-1" d="M609.71,744.07c1.74-6.54,4.97-9.86,10.03-11.01,5.07-1.16,9.65.06,12.83,4.53,3.11,4.36,3.44,9.18.59,13.59-3.41,5.29-7.46,10.17-11.25,15.21-1.19,1.57-2.47,3.08-3.77,4.69,8.34,3.24,12.47,2.33,17.17-3.62,2.16,4.81.26,9.91-4.74,10.38-7.16.67-14.44.17-22.88.17,3.28-4.09,6.05-7.31,8.55-10.73,3.51-4.82,7.25-9.55,10.08-14.77,2.79-5.14,1.71-10.28-1.55-12.82-2.57-2-8.35-.95-12.42,2.27-.5.4-1,.8-2.64,2.13Z"/>
  <path class="cls-1" d="M512.2,755.24c1.71-1.57,3.91-4.11,6.62-5.88,1.62-1.06,4.5-1.81,5.95-1.05,1.36.72,2.28,3.64,2.18,5.52-.25,4.45-1.25,8.86-1.91,13.29-.26,1.78-.42,3.57-.69,5.93,2.12-.82,3.65-1.41,5.19-2,.31.46.62.92.93,1.38-2.96,1.97-5.69,4.65-8.95,5.73-3.49,1.16-3.38-1.96-3.02-4.39,1-6.69,2.04-13.38,3.2-21.01-8.47,3.56-11.72,9.84-13.78,17.03-.5,1.75-.37,3.81-1.26,5.29-.85,1.41-2.66,2.25-4.05,3.35-.47-1.49-1.52-3.07-1.3-4.46.94-6.07,2.28-12.08,3.41-18.12.17-.9.02-1.86.02-3.03-1.89.65-3.46,1.19-5.04,1.74-.27-.51-.54-1.02-.82-1.53,3.07-1.72,6.14-3.45,9.21-5.17,1.32,2.38,2.64,4.75,4.1,7.38Z"/>
  <path class="cls-1" d="M696.77,739.68h-6.25c-.18-.41-.37-.82-.55-1.23,4.05-1.99,8.1-3.99,13.13-6.46,0,7.56,0,14.13,0,20.7,0,4.65-.26,9.33.08,13.96.27,3.68,1.27,7.31,1.98,11.15h-13.8c5.47-3.18,5.61-7.45,5.48-12.07-.24-8.61-.07-17.24-.07-26.04Z"/>
  <path class="cls-1" d="M576.51,770.23c-1.54,5.61-6.01,9-10.87,8.36-5.06-.67-6.11-4.63-6.56-8.74-.92-8.3,5.17-18.47,12.8-21.36,3.19-1.21,6.99-2.06,8.95,1.47,1.86,3.35-.08,6.48-3.15,8.51-2.9,1.92-5.82,3.94-9,5.28-3.82,1.61-4,4.12-2.6,7.22,1.57,3.48,4.12,3.37,6.95,1.45,1.05-.71,2.14-1.34,3.48-2.18ZM576.43,754.94c-.13-.74-.26-1.49-.39-2.23-1.6-.37-4.11-1.56-4.63-.97-2.26,2.53-4,5.55-5.73,8.5-.18.3.95,1.37,1.47,2.08,3.09-2.46,6.19-4.92,9.28-7.38Z"/>
  <path class="cls-1" d="M553.44,771.39c-2.26,1.8-4.41,3.75-6.79,5.36-5.6,3.77-10.85,1.55-12.28-5.06-1.91-8.86,4.99-20.96,13.51-23.68,5.51-1.76,7.9-.33,8.4,5.79-1.85-.56-3.71-.67-4.95-1.59-3.65-2.72-6.07-1.35-7.31,2.22-1.46,4.19-2.58,8.56-3.19,12.94-.25,1.8.67,4.71,2.03,5.53,1.26.77,3.85-.39,5.76-1.02,1.34-.44,2.51-1.41,3.76-2.15.35.55.71,1.1,1.06,1.64Z"/>
  <path class="cls-1" d="M487.57,752.06c-2.55,1.31-3.98,2.04-5.58,2.86.77-3.36,6.15-8.39,8.45-7.47,1.33.53,2.7,3.22,2.53,4.78-.57,5.26-1.84,10.45-2.82,15.66-.3,1.61-.54,3.23-.9,5.48,1.7-.59,2.94-1.02,5.08-1.76-1.13,1.81-1.6,3.46-2.66,4.06-2.03,1.16-4.4,1.72-6.63,2.53-.42-2.06-1.43-4.21-1.15-6.17.91-6.36,2.29-12.64,3.68-19.96Z"/>
  <path class="cls-1" d="M496.21,734.45c-1.63,1.84-3.16,3.56-5.31,5.96-1.4-1.46-2.36-2.48-3.3-3.45,2.18-3.98,4.39-5.68,8.6-2.51Z"/>
  <path d="M534.1,626.53c10.61-1.97,9.53-10.55,10.99-17.55,2.28-10.9,4.29-21.86,6.39-32.8.52-2.68,1.06-5.39-2.66-6.42-.58-.16-.93-1.15-1.39-1.75.74-.51,1.5-1.49,2.21-1.46,11.77.51,23.7.15,35.25,2.04,11.24,1.84,17.52,13.82,15.79,26.44-2.72,19.82-15.85,32.06-35.8,32.84-9.9.39-19.82.07-29.73.07-.35-.47-.7-.94-1.06-1.41ZM562.41,624.74c9.36-.08,16.81-4.93,20.06-13.77,2.23-6.08,4.03-12.35,5.51-18.65,2.02-8.62-4.11-19.2-12.12-21.65-7.75-2.38-11.31-.34-12.85,7.48-2.51,12.74-4.95,25.49-7.44,38.23-1.34,6.87-.08,8.43,6.85,8.37Z"/>
  <path d="M430.67,566.72c5.5-1.15,10.99-2.29,17.53-3.66-2.2,12.1-4.29,23.58-6.6,36.24,3.55-3.78,6.07-7.08,9.21-9.6,2.1-1.69,5.88-3.82,7.48-2.99,2.22,1.15,4.29,4.89,4.29,7.52-.01,5.76-1.42,11.5-2.16,17.26-.37,2.91-.52,5.86-.87,9.94,3.25-2.2,5.58-3.78,8.13-5.5-.79,5.64-10.33,13.07-15.16,12.1-4.12-.83-4.59-4.14-4.2-7.34.67-5.44,1.94-10.8,2.79-16.22.4-2.56.42-5.17.6-7.76-.51-.28-1.02-.55-1.53-.83-2.09,2.7-4.75,5.14-6.15,8.16-2.64,5.71-4.73,11.7-6.74,17.68-2.47,7.36-3.4,7.93-11.67,5.37,2.13-11.49,4.27-23.05,6.42-34.6.97-5.23,1.69-10.53,3.04-15.66,1.2-4.55.93-7.91-4.42-10.1Z"/>
  <path d="M395.53,571.29c-11.42-3.85-15.83,4.37-20.69,11.9-2.81-7.13,3.09-16.76,9.85-16.76,12.31,0,24.63,0,36.94,0,1.78,0,3.55,0,5.84,0-.52,5.72-.98,10.73-1.44,15.75-.49.09-.98.17-1.47.26-.58-1.52-.87-3.24-1.79-4.53-1.85-2.59-3.57-5.78-6.18-7.2-4.6-2.52-8.49-.16-9.51,4.99-2.75,13.86-5.29,27.76-8.19,41.59-.94,4.49.06,7.38,4.51,9.34h-23.61c7.1-2.2,6.91-8.44,7.98-14,2.41-12.57,4.89-25.13,7.31-37.7.21-1.1.28-2.24.45-3.64Z"/>
  <path d="M483.56,612c1.1,4.23,1.53,9.07,6.44,8.71,3.24-.24,6.28-3.07,9.52-4.8.1.55.39,1.1.24,1.48-1.71,4.4-13.82,11.59-18.47,11.02-4.46-.54-7.87-4.39-8.57-9.7-1.44-10.79,5.08-24.52,14.66-29.71,2.92-1.58,6.7-2.62,9.92-2.29,2.87.29,6.97,2.24,7.87,4.51,1.04,2.63.24,7.38-1.67,9.48-2.98,3.28-7.49,5.23-11.5,7.49-2.57,1.45-5.4,2.46-8.45,3.82ZM482.85,607.03c10.61-3.13,14.53-10.46,10.07-17.42-7.15,3.33-6.16,11.06-10.07,17.42Z"/>
  <path d="M706.1,593.97c-2.27,1.51-4.55,3.02-6.82,4.53,1.89-5.82,5.45-10.11,11.32-11.89,4.35-1.32,7.51,1.19,7.83,5.79.11,1.62.02,3.25.02,5.37,2.44-2.68,4.48-5.3,6.92-7.47,1.67-1.49,3.8-3.05,5.89-3.31,1.94-.25,5.27.65,5.88,1.99.84,1.86.42,5.13-.81,6.81-.89,1.21-4.32,1.66-6.01.97-4.31-1.77-6.84-.31-8.4,3.45-2.88,6.9-5.75,13.83-8.22,20.89-2.75,7.85-3.14,8.25-11.97,6.28,1.86-10.82,3.73-21.69,5.6-32.55-.41-.29-.81-.57-1.22-.86Z"/>
  <path d="M642.38,629.35c-2.94-.94-5.65-1.39-7.87-2.67-1.31-.75-2.69-2.94-2.52-4.29.21-1.67,1.69-3.81,3.19-4.48,1.12-.5,3.26.79,4.71,1.67,1.08.66,1.6,2.33,2.7,2.87,1.86.92,3.98,1.31,5.99,1.93.19-2.44,1.36-5.44.35-7.2-1.77-3.07-4.92-5.33-7.4-8.02-3.68-3.99-6.09-8.35-3.8-14.02,3.52-8.71,15.45-12.32,24.58-6.15,1.06.72.58,3.71.82,5.65-2.59.12-5.19.4-7.76.25-.66-.04-1.09-1.86-1.88-2.16-1.98-.74-4.11-1.07-6.18-1.56.07,2.26-.43,4.77.39,6.72.77,1.84,2.97,3.06,4.47,4.62,1.73,1.8,3.63,3.49,5.01,5.54,4.7,6.96,2.91,14.29-4.58,17.98-3.21,1.58-6.86,2.27-10.2,3.32Z"/>
  <path d="M823.05,587.8c2.97.66,5.27,1.16,7.56,1.67,0,.38.02.75.02,1.13-.96.5-1.94,1.44-2.88,1.41-4.95-.15-6.64,2.74-7.32,7.03-.83,5.25-2.02,10.44-2.85,15.68-.26,1.66.13,3.43.26,5.99,2.91-1.68,5-2.89,7.22-4.17-.7,6.06-10.33,13.02-15.61,11.17-3.95-1.38-3.86-5.1-3.33-8.4,1.12-7.05,2.55-14.05,3.83-21.07.29-1.59.49-3.21.76-4.97-2.16-.57-3.97-1.04-4.77-1.25,2.96-4.03,5.55-8.36,8.95-11.92,2.35-2.47,5.79-3.89,10.01-6.59-.75,5.86-1.29,10.06-1.84,14.28Z"/>
  <path d="M675.67,593.26c-1.85-.54-3.23-.94-4.03-1.18,2.79-4.09,5.19-8.41,8.38-12.01,2.17-2.45,5.47-3.9,8.27-5.8.4.25.8.51,1.2.76-.45,4.14-.89,8.28-1.37,12.71,2.45.6,4.87,1.19,7.29,1.79.06.39.12.78.18,1.18-1.05.48-2.12,1.41-3.14,1.36-4.5-.21-6.2,2.34-6.89,6.25-1,5.73-2.17,11.43-3.11,17.17-.28,1.7-.04,3.49-.04,6.14,3.18-2.35,5.51-4.07,7.83-5.79.27.2.53.39.8.59-.75,1.29-1.25,2.85-2.3,3.81-2.7,2.45-5.43,5.01-8.57,6.79-1.89,1.08-5.38,1.86-6.67.87-1.63-1.27-2.62-4.58-2.34-6.83.99-8.07,2.64-16.07,4.02-24.09.19-1.13.3-2.28.48-3.71Z"/>
  <path d="M786.15,591.4c-4.77,4.41-8.55,18.88-6.52,24.32,1.43,3.83,3.79,5.91,8.04,3.83,2.22-1.09,4.38-2.29,6.63-3.47.07.08.48.37.43.5-1.89,5.27-11.88,12.14-17.19,11.85-5.1-.27-9.12-4.14-9.95-9.57-1.73-11.33,5.93-26.21,16.43-30.7,3.17-1.35,7.16-1.54,10.65-1.16,3.98.43,5.96,4.66,4.4,7.83-1.32,2.69-3.19,3.81-5.99,1.95-1.25-.83-2.5-1.66-3.68-2.58-1.05-.81-2.01-1.73-3.25-2.81Z"/>
  <path d="M620.06,622.04c3.47-2.65,5.66-4.32,8.03-6.13-.4,5.46-10.38,13.77-15.15,12.77-4.07-.86-4.51-4.19-4.05-7.44.86-6.09,2.19-12.1,3.18-18.17.45-2.74.57-5.54.96-9.6-3.24,2.05-5.49,3.48-8.58,5.43,2.38-6.4,6.26-10.24,11.8-12.11,5.15-1.74,8.89,1.59,8.08,7.28-.96,6.74-2.55,13.39-3.74,20.11-.36,2.05-.3,4.17-.54,7.85Z"/>
  <path d="M754.49,621.8c3.09-2.45,5.36-4.24,7.63-6.04l1.18,1.08c-2.06,2.22-3.87,4.74-6.23,6.57-3.37,2.62-6.52,7.41-11.57,4.65-5.07-2.77-2.16-7.83-1.69-11.83.84-7.19,2.28-14.3,3.47-21.45-.4-.24-.79-.49-1.19-.73-2.26,1.43-4.53,2.86-6.79,4.28,1.04-5.52,7.17-11.41,12.35-11.88,4.63-.42,7.59,2.62,6.79,7.44-1.14,6.89-2.7,13.7-3.89,20.58-.35,2-.05,4.11-.05,7.31Z"/>
  <path d="M627.88,569.75c-.08,4.43-3,7.45-7.05,7.36-3.94-.09-5.11-2.52-5.04-5.93.09-4.08,3.1-7.24,6.75-7.22,3.42.02,5.41,2.18,5.34,5.79Z"/>
  <path d="M756.51,564.11c3.79-.02,5.35,2.1,5.37,5.64.02,4.35-2.95,7.4-7.03,7.35-3.59-.04-4.99-2.08-5.07-5.38-.11-4.44,2.67-7.58,6.73-7.62Z"/>
  <path d="M650.83,755.54c1.39-5,2.22-9.99,4.24-14.45.96-2.12,4.25-4.55,6.33-4.42,2.12.13,4.94,2.85,5.91,5.1,3.99,9.28,3.76,18.85-.39,28.04-.95,2.09-3.66,4.57-5.67,4.67-2.01.1-5.19-2.1-6.05-4.08-2.01-4.65-2.95-9.77-4.37-14.88Z"/>
  <path d="M735.69,757.03c-.99-.85-4.04-2.26-4.93-4.53-1.25-3.16-1.42-7.01-1.07-10.47.36-3.58,2.52-6.82,6.54-7.1,4.31-.3,5.73,3.24,6.86,6.63.73,2.19,1.46,4.41,1.92,6.67,1.16,5.69-1.62,8.93-9.33,8.8Z"/>
  <path d="M576.43,754.94c-3.09,2.46-6.19,4.92-9.28,7.38-.52-.71-1.64-1.78-1.47-2.08,1.73-2.95,3.47-5.97,5.73-8.5.52-.59,3.04.6,4.63.97.13.74.26,1.49.39,2.23Z"/>
  <path class="cls-1" d="M562.41,624.74c-6.92.06-8.19-1.5-6.85-8.37,2.48-12.74,4.93-25.5,7.44-38.23,1.54-7.81,5.1-9.85,12.85-7.48,8.01,2.45,14.14,13.03,12.12,21.65-1.48,6.3-3.27,12.58-5.51,18.65-3.25,8.84-10.7,13.7-20.06,13.77Z"/>
  <path class="cls-1" d="M482.85,607.03c3.92-6.36,2.92-14.09,10.07-17.42,4.45,6.97.54,14.29-10.07,17.42Z"/>
</svg>