<svg width="239" height="67" viewBox="0 0 239 67" fill="none" xmlns="http://www.w3.org/2000/svg">
<path d="M0 5.00041C0 2.23899 2.23855 0 4.99997 0C80.4532 0 155.953 0 233.598 0C236.36 0 238.6 2.23854 238.6 4.99996C238.6 23.7829 238.6 42.6024 238.6 61.8706C238.6 64.632 236.361 66.871 233.6 66.871C158.147 66.871 82.6471 66.871 5.00154 66.871C2.24012 66.871 0 64.6325 0 61.871C0 43.0881 0 24.2686 0 5.00041Z" fill="#970747"/>
<path d="M172.322 22.6617C172.985 23.4047 172.985 23.4047 173.109 24.6585C172.985 26.0052 172.985 26.0052 172.447 26.9108C171.439 27.6537 170.854 27.6931 169.671 27.4912C168.9 26.1942 168.842 25.6738 169.008 24.1477C169.937 22.6266 170.72 22.4274 172.322 22.6617Z" fill="black"/>
<path d="M127.916 22.6617C128.579 23.4047 128.579 23.4047 128.703 24.6585C128.579 26.0052 128.579 26.0052 128.04 26.9108C127.033 27.6537 126.448 27.6931 125.265 27.4912C124.494 26.1942 124.436 25.6738 124.602 24.1477C125.531 22.6266 126.314 22.4274 127.916 22.6617Z" fill="black"/>
<path d="M101.736 23.405C103.221 23.3585 104.705 23.3251 106.19 23.303C106.694 23.2937 107.197 23.2811 107.7 23.2649C111.153 23.1563 114.569 23.2053 117.32 25.926C119.327 28.3429 119.813 30.7118 119.749 33.9508C119.416 37.748 117.862 40.9437 115.323 43.4663C111.614 46.6018 107.799 46.5881 103.352 46.508C102.808 46.5024 102.265 46.4973 101.721 46.4928C100.4 46.4806 99.0801 46.4614 97.7598 46.4384C97.7598 46.0706 97.7598 45.7028 97.7598 45.3238C98.908 45.14 98.908 45.14 100.079 44.9523C100.111 44.7243 100.143 44.4962 100.176 44.2612C100.748 40.2971 101.435 36.3575 102.109 32.414C102.234 31.6826 102.359 30.9512 102.483 30.2198C102.786 28.4435 103.09 26.6672 103.393 24.891C102.847 24.891 102.3 24.891 101.736 24.891C101.736 24.4007 101.736 23.9103 101.736 23.405Z" fill="black"/>
<path d="M68.9289 22.2904C69.0541 25.0975 68.5793 27.7156 68.1004 30.4635C67.9819 31.161 67.9819 31.161 67.861 31.8726C67.6668 33.0133 67.4704 34.1534 67.272 35.2931C67.4796 35.0335 67.6872 34.774 67.9011 34.5066C68.1719 34.1685 68.4428 33.8304 68.7218 33.482C68.9909 33.1458 69.2601 32.8096 69.5373 32.4633C70.8485 30.8448 70.8485 30.8448 72.0564 30.6725C73.237 30.835 73.237 30.835 73.8104 31.639C75.1339 34.9532 73.5389 39.9878 72.9056 43.4662C73.8044 42.8671 74.6863 42.2592 75.5567 41.6087C75.5567 43.0947 75.5567 43.0947 74.8318 44.0235C74.5242 44.33 74.2166 44.6365 73.8998 44.9522C73.4999 45.366 73.4999 45.366 73.092 45.7881C72.0929 46.553 71.4656 46.8098 70.2545 46.8098C69.4674 46.2525 69.4674 46.2525 68.9289 45.3238C68.7681 42.9837 69.1981 40.7655 69.5917 38.4741C69.6865 37.907 69.6865 37.907 69.7833 37.3284C69.9385 36.4019 70.0956 35.4758 70.2545 34.5501C67.1827 37.2159 66.4513 40.8201 65.6124 44.9189C65.2836 46.0668 65.2836 46.0668 64.2895 46.8098C62.5181 46.9314 62.5181 46.9314 61.6384 46.4383C61.8115 43.4853 62.1409 40.627 62.6545 37.7253C62.7531 37.1534 62.7531 37.1534 62.8537 36.57C63.0611 35.37 63.2713 34.1706 63.4817 32.9712C63.6241 32.1503 63.7663 31.3294 63.9083 30.5085C64.254 28.5117 64.6022 26.5154 64.9523 24.5194C64.2961 24.5194 63.64 24.5194 62.9639 24.5194C63.0733 24.1516 63.1826 23.7839 63.2953 23.4049C64.1098 23.2183 64.9245 23.0327 65.7393 22.8477C66.0866 22.7679 66.0866 22.7679 66.4409 22.6866C68.1911 22.2904 68.1911 22.2904 68.9289 22.2904Z" fill="black"/>
<path d="M108.033 24.891C109.969 24.7768 111.27 24.9051 113.004 26.0056C114.4 27.4498 114.921 28.7312 115.071 30.8206C115.153 35.0301 114.61 38.9018 112.341 42.3518C110.243 44.6016 108.554 45.0383 105.738 45.0147C105.05 44.9523 105.05 44.9523 104.719 44.5808C104.621 42.3151 104.88 40.256 105.276 38.0389C105.333 37.7085 105.39 37.3782 105.449 37.0378C105.57 36.3444 105.692 35.6513 105.815 34.9585C106.003 33.8987 106.187 32.8379 106.369 31.777C106.488 31.1011 106.606 30.4254 106.725 29.7496C106.78 29.4335 106.835 29.1173 106.891 28.7915C106.944 28.4963 106.997 28.201 107.051 27.8968C107.097 27.6385 107.143 27.3802 107.19 27.114C107.387 26.3078 107.68 25.6255 108.033 24.891Z" fill="#970747"/>
<path d="M46.0631 23.0333C51.4217 23.0333 56.7802 23.0333 62.3012 23.0333C62.1918 25.1175 62.0824 27.2016 61.9698 29.3489C61.5323 29.3489 61.0949 29.3489 60.6442 29.3489C60.6032 28.9428 60.5622 28.5367 60.5199 28.1183C60.3941 26.721 60.3941 26.721 59.65 25.6339C58.6937 25.4166 58.6937 25.4166 57.6203 25.3785C57.2572 25.354 56.8941 25.3296 56.52 25.3044C56.1009 25.2836 56.1009 25.2836 55.6734 25.2624C55.6272 25.9728 55.6272 25.9728 55.5802 26.6976C55.3082 29.7449 54.7188 32.7347 54.1821 35.7342C54.0218 36.6363 53.8619 37.5386 53.7026 38.4409C53.6041 38.9985 53.505 39.5559 53.405 40.1132C53.1196 41.7215 52.8852 43.3267 52.6909 44.9522C53.2377 45.0748 53.7845 45.1973 54.3478 45.3237C54.3478 45.6915 54.3478 46.0592 54.3478 46.4382C51.6139 46.4382 48.8799 46.4382 46.0631 46.4382C46.0631 46.0704 46.0631 45.7026 46.0631 45.3237C46.7193 45.0785 47.3754 44.8333 48.0514 44.5806C48.0922 44.3496 48.133 44.1185 48.175 43.8805C48.5986 41.4818 49.0234 39.0834 49.4491 36.6852C49.6079 35.7895 49.7664 34.8936 49.9245 33.9976C50.1514 32.712 50.3796 31.4266 50.608 30.1413C50.6788 29.7388 50.7496 29.3363 50.8225 28.9216C50.8888 28.5498 50.9552 28.178 51.0235 27.7949C51.0816 27.4665 51.1398 27.1382 51.1997 26.7999C51.3653 26.0054 51.3653 26.0054 51.6967 25.2624C49.2365 25.1673 49.2365 25.1673 47.0366 26.1853C46.2024 27.2794 45.6244 28.4265 45.0689 29.7204C44.7409 29.5978 44.4128 29.4752 44.0748 29.3489C44.217 28.7135 44.3627 28.079 44.5097 27.445C44.5905 27.0915 44.6712 26.7381 44.7544 26.374C45.0689 25.2624 45.0689 25.2624 46.0631 23.0333Z" fill="black"/>
<path d="M87.5072 31.3923C88.2332 32.4424 88.4127 33.187 88.3266 34.5182C87.9013 36.3768 86.7614 37.4623 85.361 38.4683C83.844 39.3829 82.6207 40.0111 80.8587 39.7512C81.0775 40.8545 81.2962 41.9579 81.5215 43.0947C82.5559 43.4716 83.2336 43.615 84.2322 43.0773C84.8914 42.6091 85.5318 42.1261 86.161 41.6087C86.161 43.0947 86.161 43.0947 85.5551 43.7826C85.2903 44 85.0254 44.2174 84.7526 44.4414C84.4911 44.6608 84.2297 44.8801 83.9603 45.1061C82.5696 46.1541 81.5795 46.6224 79.8542 46.5863C78.7528 46.3364 78.2248 45.5278 77.5449 44.5807C77.4355 44.4582 77.3261 44.3356 77.2135 44.2092C76.9359 40.1343 77.3798 37.3402 79.638 34.1394C81.7777 31.4402 84.3147 29.6393 87.5072 31.3923Z" fill="black"/>
<path d="M157.741 30.8351C158.363 31.3923 158.363 31.3923 158.735 32.3211C158.813 33.3318 158.781 34.2747 158.735 35.2931C158.913 34.9713 159.091 34.6495 159.274 34.3179C160.067 33.0076 160.875 31.7429 162.049 30.8351C163.249 30.63 163.955 30.5886 165.032 31.2298C165.573 32.4058 165.314 33.3057 165.032 34.5501C163.888 35.4051 163.628 35.3445 162.318 35.1538C162.02 35.1126 161.721 35.0714 161.414 35.029C161.186 34.9936 160.958 34.9581 160.724 34.9216C158.325 38.3318 157.452 42.3278 156.416 46.4383C155.322 46.4383 154.228 46.4383 153.102 46.4383C153.308 42.1585 154.039 38.0099 154.759 33.8071C153.86 34.4062 152.978 35.0141 152.108 35.6646C151.998 35.4194 151.889 35.1743 151.776 34.9216C155.111 30.3863 155.111 30.3863 157.741 30.8351Z" fill="black"/>
<path d="M193.863 26.7484C193.816 27.4142 193.767 28.0798 193.718 28.7453C193.691 29.1159 193.664 29.4866 193.636 29.8685C193.531 30.835 193.531 30.835 193.2 31.578C194.075 31.578 194.95 31.578 195.851 31.578C195.851 32.191 195.851 32.804 195.851 33.4355C194.867 33.4355 193.882 33.4355 192.868 33.4355C192.834 33.8569 192.8 34.2784 192.765 34.7126C192.49 37.5279 191.996 40.3101 191.543 43.0947C192.651 42.8258 193.313 42.4196 194.194 41.6086C194.033 43.197 193.677 43.8322 192.578 44.8361C192.347 45.0521 192.115 45.2681 191.877 45.4906C190.703 46.507 190.057 47.0194 188.56 46.8097C187.864 46.2188 187.597 45.8925 187.447 44.9174C187.493 42.516 187.778 40.2448 188.208 37.8936C188.269 37.5445 188.329 37.1954 188.391 36.8357C188.84 34.295 188.84 34.295 189.223 33.4355C188.458 33.4355 187.692 33.4355 186.903 33.4355C187.525 31.9959 187.525 31.9959 187.898 31.578C188.45 31.5629 189.002 31.5621 189.555 31.578C189.548 31.1949 189.541 30.8118 189.534 30.417C189.658 29.3696 189.831 29.0343 190.537 28.3084C192.586 26.7484 192.586 26.7484 193.863 26.7484Z" fill="black"/>
<path d="M149.125 26.7484C149.078 27.4142 149.03 28.0798 148.98 28.7453C148.953 29.1159 148.926 29.4866 148.898 29.8685C148.794 30.835 148.794 30.835 148.462 31.578C149.337 31.578 150.212 31.578 151.113 31.578C151.113 32.191 151.113 32.804 151.113 33.4355C150.129 33.4355 149.145 33.4355 148.131 33.4355C148.097 33.8569 148.063 34.2784 148.027 34.7126C147.753 37.5279 147.259 40.3101 146.805 43.0947C147.914 42.8258 148.576 42.4196 149.456 41.6086C149.295 43.197 148.94 43.8322 147.841 44.8361C147.609 45.0521 147.378 45.2681 147.139 45.4906C145.965 46.507 145.319 47.0194 143.823 46.8097C143.126 46.2188 142.859 45.8925 142.709 44.9174C142.756 42.516 143.041 40.2448 143.471 37.8936C143.531 37.5445 143.592 37.1954 143.654 36.8357C144.102 34.295 144.102 34.295 144.486 33.4355C143.72 33.4355 142.955 33.4355 142.166 33.4355C142.787 31.9959 142.787 31.9959 143.16 31.578C143.712 31.5629 144.265 31.5621 144.817 31.578C144.81 31.1949 144.803 30.8118 144.796 30.417C144.92 29.3696 145.093 29.0343 145.799 28.3084C147.849 26.7484 147.849 26.7484 149.125 26.7484Z" fill="black"/>
<path d="M139.908 31.253C140.509 31.9496 140.509 31.9496 140.654 33.0873C140.509 34.1786 140.509 34.1786 139.846 34.9216C139.08 35.1074 139.08 35.1074 138.189 34.9216C137.637 34.1786 137.085 33.4356 136.532 32.6926C135.633 32.5054 135.633 32.5054 134.875 32.6926C134.847 34.2073 134.908 34.9402 135.858 36.0623C136.38 36.5616 136.911 37.0498 137.451 37.5251C138.668 38.7456 139.136 39.7544 139.37 41.5623C139.311 43.1471 138.752 44.0292 137.783 45.1467C136.525 46.3204 135.323 46.7561 133.715 46.9491C132.379 46.7886 130.895 46.4347 129.904 45.3238C129.807 43.9409 129.855 43.5488 130.567 42.3517C131.855 42.4367 132.388 42.8428 133.218 43.8842C133.696 44.494 133.696 44.494 134.212 44.9523C135.145 44.9675 135.145 44.9675 135.869 44.5808C136.003 43.7305 136.003 43.7305 135.869 42.7232C135.181 41.7544 135.181 41.7544 134.275 40.8657C132.728 39.265 131.684 38.0965 131.375 35.7111C131.429 34.1229 132.027 33.2684 132.953 32.115C134.901 30.3626 137.631 30.352 139.908 31.253Z" fill="black"/>
<path d="M184.252 30.8351C185.101 31.2298 185.101 31.2298 185.578 31.9496C185.702 33.2731 185.702 33.2731 185.578 34.5501C184.915 35.2931 184.915 35.2931 184.128 35.4557C183.258 35.2931 183.258 35.2931 182.492 34.4108C181.932 33.4356 181.932 33.4356 181.932 32.6926C181.11 32.8177 181.11 32.8177 180.276 33.4356C179.804 34.5098 179.541 35.6209 179.281 36.7791C179.206 37.078 179.131 37.3768 179.054 37.6847C178.726 40.4592 178.726 40.4592 179.281 43.0947C180.405 43.5626 180.855 43.5055 181.974 42.9786C182.635 42.5438 183.283 42.0852 183.921 41.6087C183.769 43.3131 183.284 43.9867 182.119 45.0684C180.634 46.3278 179.555 46.8373 177.692 46.6632C176.551 46.3118 175.993 45.6268 175.305 44.5808C174.538 42.8617 174.795 40.3729 175.126 38.5293C176.058 35.443 178.078 32.805 180.573 31.1645C181.777 30.595 182.97 30.6715 184.252 30.8351Z" fill="black"/>
<path d="M170.997 30.8351C171.618 31.4155 171.618 31.4155 171.991 32.3211C172.077 34.2201 171.868 35.9741 171.515 37.824C171.47 38.0718 171.425 38.3197 171.379 38.575C171.045 40.3857 171.045 40.3857 170.665 41.2372C170.652 41.9801 170.651 42.7234 170.665 43.4663C171.644 42.9567 172.468 42.356 173.316 41.6087C173.156 43.1971 172.8 43.8323 171.701 44.8362C171.469 45.0522 171.238 45.2681 170.999 45.4907C169.825 46.5071 169.179 47.0195 167.683 46.8098C166.991 46.2216 166.72 45.8944 166.568 44.9256C166.615 42.4466 166.923 40.0918 167.351 37.6615C167.415 37.2884 167.478 36.9154 167.543 36.531C167.697 35.6224 167.855 34.7145 168.014 33.8071C167.115 34.4062 166.234 35.0141 165.363 35.6646C165.254 35.4194 165.144 35.1743 165.032 34.9216C168.366 30.3863 168.366 30.3863 170.997 30.8351Z" fill="black"/>
<path d="M126.591 30.8351C127.212 31.4155 127.212 31.4155 127.585 32.3211C127.671 34.2201 127.461 35.9741 127.108 37.824C127.064 38.0718 127.019 38.3197 126.973 38.575C126.639 40.3857 126.639 40.3857 126.259 41.2372C126.246 41.9801 126.245 42.7234 126.259 43.4663C127.238 42.9567 128.062 42.356 128.91 41.6087C128.749 43.1971 128.393 43.8323 127.295 44.8362C127.063 45.0522 126.832 45.2681 126.593 45.4907C125.419 46.5071 124.773 47.0195 123.277 46.8098C122.585 46.2216 122.314 45.8944 122.162 44.9256C122.209 42.4466 122.517 40.0918 122.945 37.6615C123.009 37.2884 123.072 36.9154 123.137 36.531C123.291 35.6224 123.448 34.7145 123.608 33.8071C122.709 34.4062 121.827 35.0141 120.957 35.6646C120.848 35.4194 120.738 35.1743 120.626 34.9216C123.96 30.3863 123.96 30.3863 126.591 30.8351Z" fill="black"/>
<path d="M83.1786 32.321C83.6161 32.321 84.0535 32.321 84.5042 32.321C84.7813 34.8062 84.7813 34.8062 84.0226 36.1391C82.4731 38.1573 82.4731 38.1573 81.1903 38.6366C81.3743 36.2848 81.6228 34.0652 83.1786 32.321Z" fill="#970747"/>
</svg>
